<svg width="31" height="35" viewBox="0 0 31 35" fill="none" xmlns="http://www.w3.org/2000/svg">
<path d="M20.3652 15.4561C22.4815 13.9005 23.8597 11.3831 23.8597 8.54701C23.8597 3.83418 20.0552 0 15.3788 0C10.7024 0 6.89783 3.83418 6.89783 8.54701C6.89783 11.3831 8.27597 13.9005 10.3924 15.4561C5.13131 17.485 0 25.1257 0 31.1325C0 33.7245 2.09249 35 4.66452 35H26.0931C28.6651 35 30.7576 33.7245 30.7576 31.1325C30.7576 25.1257 25.6263 17.485 20.3652 15.4561ZM9.44214 8.54701C9.44214 5.24805 12.1053 2.56413 15.3788 2.56413C18.6523 2.56413 21.3154 5.24805 21.3154 8.54701C21.3154 11.846 18.6523 14.5299 15.3788 14.5299C12.1053 14.5299 9.44214 11.846 9.44214 8.54701ZM26.0931 32.4359H4.66452C3.49544 32.4359 2.54431 32.0833 2.54431 31.1324C2.54431 24.7701 9.06559 17.0939 15.3789 17.0939C21.6921 17.0939 28.2134 24.77 28.2134 31.1324C28.2134 32.4359 26.0931 32.4359 26.0931 32.4359Z" fill="white"/>
</svg>
