<svg width="30" height="29" viewBox="0 0 30 29" fill="none" xmlns="http://www.w3.org/2000/svg">
<path d="M14.115 27.4351C21.3582 27.4351 27.23 21.5633 27.23 14.3201C27.23 7.07686 21.3582 1.20508 14.115 1.20508C6.87179 1.20508 1 7.07686 1 14.3201C1 21.5633 6.87179 27.4351 14.115 27.4351Z" stroke="white" stroke-width="2" stroke-linecap="round" stroke-linejoin="round"/>
<path d="M13.9914 7.46143V9.45714M13.9914 19.4357V21.4314M10.9979 19.4357H15.4882C16.1498 19.4357 16.7843 19.1728 17.2522 18.705C17.72 18.2372 17.9828 17.6026 17.9828 16.941C17.9828 16.2794 17.72 15.6449 17.2522 15.177C16.7843 14.7092 16.1498 14.4464 15.4882 14.4464H12.4946C11.833 14.4464 11.1985 14.1836 10.7307 13.7157C10.2628 13.2479 10 12.6134 10 11.9517C10 11.2901 10.2628 10.6556 10.7307 10.1878C11.1985 9.71993 11.833 9.4571 12.4946 9.4571H16.985" stroke="white" stroke-width="2" stroke-linecap="round" stroke-linejoin="round"/>
<path d="M28.0424 2.42538C28.1959 2.28252 28.4002 2.20353 28.6121 2.2051C28.8241 2.20667 29.0272 2.28866 29.1785 2.43379C29.3298 2.57891 29.4175 2.7758 29.4231 2.98293C29.4287 3.19005 29.3517 3.3912 29.2085 3.54394L23.86 10.8597C23.7852 10.9384 23.695 11.0016 23.5947 11.0455C23.4943 11.0893 23.386 11.113 23.2761 11.1149C23.1662 11.1169 23.0571 11.0972 22.9552 11.057C22.8532 11.0169 22.7607 10.957 22.683 10.881L19.7992 8.06228C19.7189 7.98913 19.6545 7.90093 19.6098 7.80292C19.5651 7.70491 19.5411 7.59912 19.5392 7.49184C19.5373 7.38456 19.5574 7.278 19.5986 7.17852C19.6397 7.07903 19.7009 6.98866 19.7785 6.91279C19.8561 6.83692 19.9485 6.77711 20.0503 6.73693C20.1521 6.69674 20.2611 6.67701 20.3709 6.6789C20.4806 6.6808 20.5889 6.70428 20.6891 6.74794C20.7894 6.79161 20.8796 6.85457 20.9545 6.93307L23.2366 9.16272L28.0216 2.44882C28.0285 2.44062 28.0346 2.43279 28.0424 2.42538Z" fill="white"/>
</svg>
