<svg width="27" height="28" viewBox="0 0 27 28" fill="none" xmlns="http://www.w3.org/2000/svg">
<path opacity="0.6" d="M2.19372 21.5235C2.06549 22.5285 2 23.55 2 24.5823V27.6411M2.19372 21.5235C3.58522 10.6166 12.3644 1.64111 25 1.64111L23.9298 5.91098C23.6705 6.94571 22.6442 7.58869 21.5826 7.48414C20.495 7.37704 19.2656 7.36082 18.8667 7.75876C18.3829 8.2413 19.1202 9.3328 19.7302 10.0726C20.0821 10.4995 20.0819 11.1349 19.6902 11.5256L17.6866 13.524C17.4642 13.7459 17.1508 13.8503 16.839 13.8116C15.4934 13.6446 11.8238 13.2542 11.2 13.8764C10.659 14.4161 12.4087 15.7174 13.4856 16.4366C13.9208 16.7273 14.0853 17.297 13.8508 17.7649L13.01 19.4422C12.8404 19.7805 12.4944 19.9941 12.116 19.9941H6.6L2.19372 21.5235Z" stroke="#858585" stroke-width="2.2"/>
</svg>
