<svg width="24" height="28" viewBox="0 0 24 28" fill="none" xmlns="http://www.w3.org/2000/svg">
<path d="M21.5626 26.75H2.43745C2.15566 26.75 1.88542 26.638 1.68617 26.4388C1.48693 26.2395 1.37499 25.9693 1.375 25.6875V2.3125C1.37499 2.03071 1.48693 1.76047 1.68617 1.56121C1.88542 1.36195 2.15566 1.25001 2.43745 1.25H15.1879L22.625 8.6875V25.6875C22.625 25.9693 22.5131 26.2395 22.3138 26.4388C22.1146 26.638 21.8443 26.75 21.5626 26.75V26.75Z" stroke="#858585" stroke-width="2" stroke-linecap="round" stroke-linejoin="round"/>
<path d="M15.1875 1.25V8.6875H22.6261" stroke="#858585" stroke-width="2" stroke-linecap="round" stroke-linejoin="round"/>
<path d="M18.375 20.375H5.625V9.75" stroke="#858585" stroke-width="1.77778" stroke-linecap="round" stroke-linejoin="round"/>
<path d="M18.375 12.9375L14.125 16.6562L9.875 13.4688L5.625 17.1875" stroke="#858585" stroke-width="1.77778" stroke-linecap="round" stroke-linejoin="round"/>
</svg>
