<svg width="341" height="70" viewBox="0 0 341 70" fill="none" xmlns="http://www.w3.org/2000/svg">
<g clip-path="url(#clip0_219_1848)">
<path d="M31.6434 29.8919H35.9886C43.1675 29.8919 46.8042 31.4527 46.8042 35.6622C46.8042 39.3987 43.876 40.9595 39.2947 40.9595C38.1139 40.9595 33.9577 40.9595 32.3046 40.9595L24.3228 46.5406H39.2002C48.1267 46.5406 54.1249 43.3244 54.1249 35.8987C54.1249 29.419 48.8351 26.8649 44.0649 26.8649C47.3238 26.8649 51.1966 23.9325 51.1966 18.919C51.1966 13.9527 46.6625 10.3582 41.4673 10.3582H26.2592H22.9531L24.2756 13.3379V43.9392L31.6434 38.8311V29.8919ZM31.6434 15.9865H39.2947C41.3728 15.9865 44.0649 16.5068 44.0649 20.0541C44.0649 23.6014 40.2865 25.0676 37.4527 25.0676H31.6434V15.9865Z" fill="white"/>
<path d="M66.1216 15.9865H71.0807C73.1116 15.9865 83.5967 16.5067 83.5967 28.473C83.5967 42.1419 71.0807 40.9594 71.0807 40.9594H66.7828L58.801 46.5405H73.1116C82.0381 46.5405 91.1534 41.054 91.1534 28.473C91.1534 17.3108 83.1716 10.4054 73.1116 10.4054H57.4785L58.801 13.3851V43.9865L66.1216 38.8311V15.9865Z" fill="white"/>
<path d="M94.5527 28.473C94.5527 42.8987 106.219 46.9662 113.728 46.9662C121.285 46.9662 132.903 42.8987 132.903 28.473C132.903 14.0473 121.238 9.97974 113.728 9.97974C106.219 9.97974 94.5527 14.0473 94.5527 28.473ZM102.157 28.473C102.157 18.2568 109.194 15.3716 113.775 15.3716C118.357 15.3716 125.394 18.2568 125.394 28.473C125.394 38.6892 118.357 41.5743 113.775 41.5743C109.194 41.5743 102.157 38.6892 102.157 28.473Z" fill="white"/>
<path d="M7.88672 10.3582V55.4798L15.0184 50.4663V10.3582H7.88672Z" fill="white"/>
<path d="M16.3409 52.1217L7.88672 58.0812H132.574V52.1217H16.3409Z" fill="white"/>
<path d="M175.932 41.1014V39.777L181.41 32.9189C181.788 32.4459 182.166 32.0203 182.497 31.6419H176.546V30.3649H184.197V31.6419L178.199 39.0676L177.537 39.8243H184.386V41.1014H175.932Z" fill="white"/>
<path d="M186.18 41.1014V30.3649H187.597V41.1014H186.18Z" fill="white"/>
<path d="M193.123 41.1014L188.967 30.3649H190.478L193.265 38.1689C193.501 38.7838 193.69 39.3987 193.831 39.9189C194.02 39.3514 194.209 38.7365 194.398 38.1689L197.279 30.3649H198.743L194.587 41.1014H193.123Z" fill="white"/>
<path d="M204.27 41.1014V30.3649H205.686V34.7635H211.26V30.3649H212.676V41.1014H211.26V36.0405H205.686V41.1014H204.27Z" fill="white"/>
<path d="M213.855 41.1014L217.964 30.3649H219.476L223.868 41.1014H222.262L221.034 37.8378H216.548L215.367 41.1014H213.855ZM216.925 36.7027H220.562L219.429 33.723C219.098 32.8243 218.815 32.0676 218.673 31.5C218.531 32.2095 218.342 32.8716 218.106 33.5338L216.925 36.7027Z" fill="white"/>
<path d="M225.051 41.1014V30.3649H232.277V31.6419H226.468V34.9527H231.474V36.2297H226.468V41.1014H225.051Z" fill="white"/>
<path d="M236.857 41.1014V31.6419H233.314V30.3649H241.816V31.6419H238.274V41.1014H236.857Z" fill="white"/>
<path d="M247.105 41.1014V30.3649H248.57L254.19 38.7838V30.3649H255.56V41.1014H254.095L248.475 32.6824V41.1014H247.105Z" fill="white"/>
<path d="M257.496 35.8513C257.496 34.054 257.968 32.6824 258.913 31.6892C259.858 30.6959 261.086 30.1757 262.597 30.1757C263.589 30.1757 264.486 30.4121 265.289 30.8851C266.092 31.3581 266.706 32.0203 267.084 32.8716C267.509 33.723 267.698 34.6689 267.698 35.7567C267.698 36.8446 267.462 37.8378 267.037 38.6892C266.611 39.5405 265.997 40.2027 265.195 40.6284C264.392 41.054 263.542 41.2905 262.597 41.2905C261.605 41.2905 260.708 41.054 259.905 40.5811C259.102 40.1081 258.488 39.4459 258.11 38.5946C257.732 37.7432 257.496 36.7973 257.496 35.8513ZM258.96 35.8986C258.96 37.1757 259.291 38.2162 259.999 38.973C260.708 39.7297 261.558 40.1081 262.597 40.1081C263.683 40.1081 264.533 39.7297 265.242 38.973C265.95 38.2162 266.281 37.1757 266.281 35.7567C266.281 34.9054 266.139 34.1013 265.856 33.4865C265.572 32.8243 265.147 32.3513 264.581 31.973C264.014 31.5946 263.4 31.4527 262.691 31.4527C261.7 31.4527 260.849 31.7838 260.094 32.4932C259.338 33.1081 258.96 34.2905 258.96 35.8986Z" fill="white"/>
<path d="M269.494 41.1014V30.3649H271.619L274.17 37.9324C274.406 38.6419 274.595 39.1622 274.689 39.5405C274.831 39.1622 275.02 38.5946 275.256 37.8378L277.807 30.3649H279.696V41.1014H278.326V32.1149L275.209 41.1014H273.934L270.817 31.973V41.1014H269.494V41.1014Z" fill="white"/>
<path d="M282.246 41.1014V30.3649H283.663V41.1014H282.246Z" fill="white"/>
<path d="M286.166 41.1014V30.3649H287.63L293.203 38.7838V30.3649H294.573V41.1014H293.109L287.488 32.6824V41.1014H286.166Z" fill="white"/>
<path d="M296.98 41.1014V30.3649H304.726V31.6419H298.397V34.9054H304.301V36.1824H298.397V39.8243H304.962V41.1014H296.98V41.1014Z" fill="white"/>
<path d="M306.947 41.1014V30.3649H314.693V31.6419H308.364V34.9054H314.268V36.1824H308.364V39.8243H314.929V41.1014H306.947V41.1014Z" fill="white"/>
<path d="M316.439 37.6486L317.762 37.554C317.809 38.0743 317.951 38.5473 318.187 38.8784C318.423 39.2095 318.801 39.4932 319.273 39.7297C319.746 39.9189 320.312 40.0608 320.926 40.0608C321.446 40.0608 321.965 39.9662 322.343 39.8243C322.768 39.6824 323.052 39.4459 323.288 39.1622C323.477 38.8784 323.571 38.5946 323.571 38.2635C323.571 37.9324 323.477 37.6486 323.288 37.3649C323.099 37.1284 322.768 36.8919 322.343 36.75C322.06 36.6554 321.399 36.4662 320.454 36.2297C319.462 35.9932 318.801 35.7567 318.376 35.5676C317.856 35.2838 317.479 34.9527 317.242 34.5743C317.006 34.1959 316.865 33.723 316.865 33.25C316.865 32.7297 317.006 32.2095 317.337 31.7365C317.62 31.2635 318.093 30.9324 318.659 30.6486C319.226 30.4122 319.887 30.2703 320.643 30.2703C321.446 30.2703 322.154 30.4122 322.721 30.6486C323.335 30.8851 323.807 31.2635 324.138 31.7838C324.469 32.304 324.657 32.8243 324.657 33.4865L323.288 33.5811C323.193 32.9189 322.957 32.3986 322.532 32.0676C322.107 31.7365 321.493 31.5473 320.69 31.5473C319.84 31.5473 319.226 31.6892 318.801 32.0203C318.423 32.3513 318.234 32.7297 318.234 33.1554C318.234 33.5338 318.376 33.8649 318.659 34.1013C318.943 34.3378 319.651 34.6216 320.785 34.8581C321.918 35.1419 322.721 35.3311 323.146 35.5203C323.76 35.804 324.232 36.1824 324.516 36.6081C324.799 37.0338 324.941 37.554 324.941 38.1216C324.941 38.6892 324.799 39.2095 324.469 39.7297C324.138 40.25 323.666 40.6284 323.052 40.9122C322.438 41.1959 321.776 41.3378 320.974 41.3378C320.029 41.3378 319.179 41.1959 318.518 40.9122C317.856 40.6284 317.337 40.2027 316.959 39.6351C316.628 39.0203 316.439 38.3581 316.439 37.6486Z" fill="white"/>
<path d="M182.26 56.5675C181.834 57.0405 181.362 57.4189 180.843 57.6554C180.323 57.8919 179.756 58.0338 179.19 58.0338C178.103 58.0338 177.206 57.6554 176.592 56.9459C176.072 56.3311 175.789 55.6689 175.789 54.9121C175.789 54.25 176.025 53.6351 176.45 53.1148C176.875 52.5946 177.537 52.1216 178.339 51.6959C177.867 51.1283 177.537 50.7027 177.395 50.3243C177.253 49.9932 177.159 49.6621 177.159 49.3311C177.159 48.6689 177.395 48.1486 177.914 47.6756C178.434 47.2027 179.048 46.9662 179.804 46.9662C180.512 46.9662 181.126 47.2027 181.598 47.6283C182.071 48.054 182.307 48.6216 182.307 49.2365C182.307 50.277 181.646 51.1283 180.276 51.8378L182.212 54.2973C182.448 53.8716 182.59 53.3513 182.732 52.7838L184.102 53.0675C183.865 54.0135 183.535 54.7702 183.157 55.3851C183.629 56.0473 184.196 56.5675 184.81 57.0405L183.913 58.0811C183.393 57.75 182.826 57.2297 182.26 56.5675ZM181.457 55.527L179.048 52.5473C178.339 52.9729 177.867 53.3513 177.631 53.7297C177.395 54.1081 177.253 54.4392 177.253 54.8175C177.253 55.2432 177.442 55.7162 177.773 56.1892C178.103 56.6621 178.623 56.8986 179.237 56.8986C179.615 56.8986 180.04 56.7567 180.465 56.5202C180.843 56.2365 181.173 55.9054 181.457 55.527ZM179.615 50.9865C180.181 50.6554 180.559 50.3716 180.701 50.0878C180.89 49.8513 180.937 49.5675 180.937 49.2365C180.937 48.8581 180.843 48.5743 180.607 48.3378C180.37 48.1013 180.087 48.0067 179.756 48.0067C179.379 48.0067 179.095 48.1013 178.859 48.3378C178.623 48.5743 178.528 48.8581 178.528 49.1892C178.528 49.3783 178.576 49.5202 178.67 49.7094C178.765 49.8986 178.906 50.0878 179.048 50.277L179.615 50.9865Z" fill="white"/>
<path d="M190.479 57.8446V47.1082H191.895V51.5068H197.469V47.1082H198.885V57.8446H197.469V52.7838H191.895V57.8446H190.479Z" fill="white"/>
<path d="M200.82 52.5946C200.82 50.7973 201.293 49.4257 202.237 48.4325C203.182 47.4392 204.41 46.9189 205.921 46.9189C206.913 46.9189 207.81 47.1554 208.613 47.6284C209.416 48.1014 210.03 48.7635 210.408 49.6149C210.833 50.4662 211.022 51.4122 211.022 52.5C211.022 53.5879 210.786 54.5811 210.361 55.4325C209.936 56.2838 209.322 56.946 208.519 57.3717C207.716 57.7973 206.866 58.0338 205.921 58.0338C204.929 58.0338 204.032 57.7973 203.229 57.3244C202.426 56.8514 201.812 56.1892 201.434 55.3379C201.009 54.4392 200.82 53.5406 200.82 52.5946ZM202.284 52.6419C202.284 53.9189 202.615 54.9595 203.323 55.7162C204.032 56.473 204.882 56.8514 205.921 56.8514C207.007 56.8514 207.858 56.473 208.566 55.7162C209.274 54.9595 209.605 53.9189 209.605 52.5C209.605 51.6487 209.463 50.8446 209.18 50.2298C208.897 49.5676 208.472 49.0946 207.905 48.7162C207.338 48.3379 206.724 48.196 206.016 48.196C205.024 48.196 204.174 48.5271 203.418 49.2365C202.615 49.8514 202.284 51.0338 202.284 52.6419Z" fill="white"/>
<path d="M212.816 57.8446V47.1082H214.233V56.5676H219.523V57.8446H212.816Z" fill="white"/>
<path d="M221.178 57.8446V47.1082H224.862C225.712 47.1082 226.326 47.1555 226.751 47.25C227.365 47.3919 227.884 47.6284 228.309 48.0068C228.876 48.4798 229.301 49.0946 229.585 49.8514C229.868 50.6082 230.01 51.4595 230.01 52.4055C230.01 53.2095 229.915 53.919 229.726 54.5811C229.537 55.196 229.301 55.7163 229.018 56.1419C228.735 56.5676 228.404 56.8987 228.026 57.1352C227.695 57.3717 227.27 57.5609 226.751 57.6555C226.231 57.7973 225.665 57.8446 225.051 57.8446H221.178V57.8446ZM222.595 56.5676H224.862C225.57 56.5676 226.137 56.5203 226.515 56.3784C226.893 56.2365 227.223 56.0473 227.459 55.8109C227.79 55.4798 228.073 55.0068 228.262 54.4392C228.451 53.8717 228.546 53.1622 228.546 52.3582C228.546 51.223 228.357 50.3717 227.979 49.7568C227.601 49.1419 227.176 48.7636 226.656 48.5271C226.279 48.3852 225.665 48.2906 224.814 48.2906H222.547V56.5676H222.595Z" fill="white"/>
<path d="M232.229 57.8446V47.1082H233.645V57.8446H232.229Z" fill="white"/>
<path d="M236.102 57.8446V47.1082H237.566L243.186 55.5271V47.1082H244.556V57.8446H243.092L237.471 49.4257V57.8446H236.102Z" fill="white"/>
<path d="M251.923 53.6351V52.3581H256.457V56.331C255.749 56.8986 255.04 57.3243 254.285 57.6081C253.529 57.8919 252.773 58.0338 252.018 58.0338C250.979 58.0338 250.034 57.7973 249.137 57.3716C248.287 56.8986 247.625 56.2838 247.2 55.4324C246.775 54.581 246.539 53.6351 246.539 52.5946C246.539 51.554 246.775 50.5608 247.2 49.6621C247.625 48.7635 248.239 48.1013 249.089 47.6283C249.892 47.2027 250.837 46.9662 251.923 46.9662C252.679 46.9662 253.387 47.1081 254.001 47.3446C254.615 47.581 255.135 47.9594 255.466 48.3851C255.796 48.8108 256.079 49.4256 256.268 50.1351L254.993 50.4662C254.852 49.8986 254.615 49.4729 254.379 49.1892C254.143 48.9054 253.812 48.6216 253.34 48.4324C252.915 48.2432 252.396 48.1486 251.876 48.1486C251.215 48.1486 250.648 48.2432 250.176 48.4324C249.703 48.6216 249.326 48.9054 249.042 49.1892C248.759 49.4729 248.523 49.8513 248.381 50.2297C248.098 50.8919 247.956 51.6013 247.956 52.4054C247.956 53.3513 248.098 54.1554 248.428 54.8175C248.759 55.4797 249.231 55.9527 249.845 56.2365C250.459 56.5675 251.12 56.7094 251.829 56.7094C252.443 56.7094 253.057 56.5675 253.624 56.331C254.19 56.0946 254.663 55.8581 254.946 55.5743V53.5878H251.923V53.6351Z" fill="white"/>
<path d="M258.064 54.3919L259.387 54.2973C259.434 54.8176 259.576 55.2906 259.812 55.6217C260.048 55.9527 260.426 56.2365 260.898 56.473C261.371 56.6622 261.937 56.8041 262.551 56.8041C263.071 56.8041 263.59 56.7095 263.968 56.5676C264.393 56.4257 264.677 56.1892 264.913 55.9054C265.102 55.6217 265.196 55.3379 265.196 55.0068C265.196 54.6757 265.102 54.3919 264.913 54.1081C264.724 53.8717 264.393 53.6352 263.968 53.4933C263.685 53.3987 263.024 53.2095 262.079 52.973C261.087 52.7365 260.426 52.5 260.001 52.3108C259.481 52.0271 259.103 51.696 258.867 51.3176C258.631 50.9392 258.49 50.4663 258.49 49.9933C258.49 49.473 258.631 48.9527 258.962 48.4798C259.292 48.0068 259.717 47.6757 260.284 47.3919C260.851 47.1554 261.512 47.0135 262.268 47.0135C263.071 47.0135 263.779 47.1554 264.346 47.3919C264.96 47.6284 265.432 48.0068 265.763 48.5271C266.094 49.0473 266.282 49.5676 266.282 50.2298L264.913 50.3244C264.818 49.6622 264.582 49.1419 264.157 48.8108C263.732 48.4798 263.118 48.2906 262.315 48.2906C261.465 48.2906 260.851 48.4325 260.426 48.7635C260.048 49.0946 259.859 49.473 259.859 49.8987C259.859 50.2771 260.001 50.6081 260.284 50.8446C260.568 51.0811 261.276 51.3649 262.41 51.6014C263.543 51.8852 264.346 52.0744 264.771 52.2635C265.385 52.5473 265.857 52.9257 266.141 53.3514C266.424 53.7771 266.566 54.2973 266.566 54.8649C266.566 55.4325 266.424 55.9527 266.094 56.473C265.763 56.9933 265.291 57.3717 264.677 57.6554C264.063 57.9392 263.401 58.0811 262.599 58.0811C261.607 58.0811 260.804 57.9392 260.143 57.6554C259.481 57.3717 258.962 56.946 258.584 56.3784C258.301 55.7163 258.112 55.1014 258.064 54.3919Z" fill="white"/>
<path d="M279.081 56.5676V57.8446H271.996C271.996 57.5136 272.043 57.2298 272.138 56.946C272.327 56.473 272.61 56 272.988 55.5271C273.366 55.0541 273.98 54.5338 274.688 53.919C275.869 52.973 276.625 52.2163 277.05 51.6487C277.475 51.0811 277.664 50.5609 277.664 50.0879C277.664 49.5676 277.475 49.1419 277.097 48.7636C276.719 48.3852 276.247 48.2433 275.633 48.2433C275.019 48.2433 274.499 48.4325 274.121 48.8109C273.744 49.1892 273.555 49.7095 273.555 50.3717L272.185 50.2298C272.279 49.2365 272.61 48.4325 273.224 47.9122C273.838 47.3919 274.641 47.1082 275.633 47.1082C276.672 47.1082 277.475 47.3919 278.089 47.9595C278.703 48.5271 278.986 49.2365 278.986 50.0879C278.986 50.5136 278.892 50.9392 278.703 51.3649C278.514 51.7906 278.23 52.2163 277.853 52.6892C277.428 53.1622 276.766 53.7771 275.822 54.5811C275.019 55.2433 274.546 55.7163 274.31 55.9528C274.074 56.1892 273.885 56.4257 273.744 56.6622H279.081V56.5676Z" fill="white"/>
<path d="M280.451 52.5473C280.451 51.2702 280.593 50.277 280.829 49.473C281.112 48.7162 281.49 48.1013 282.01 47.6757C282.529 47.25 283.191 47.0608 283.946 47.0608C284.513 47.0608 285.032 47.1554 285.458 47.3919C285.883 47.6284 286.26 47.9594 286.544 48.3851C286.827 48.8108 287.063 49.3311 287.205 49.9932C287.347 50.6081 287.441 51.4594 287.441 52.5473C287.441 53.8243 287.3 54.8175 287.063 55.5743C286.827 56.3311 286.402 56.9459 285.883 57.3716C285.363 57.7973 284.702 57.9865 283.946 57.9865C282.907 57.9865 282.104 57.6081 281.537 56.8986C280.829 56 280.451 54.5338 280.451 52.5473ZM281.821 52.5473C281.821 54.2973 282.01 55.4797 282.435 56.0473C282.86 56.6148 283.332 56.8986 283.946 56.8986C284.56 56.8986 285.08 56.6148 285.458 56C285.883 55.4324 286.072 54.25 286.072 52.5C286.072 50.75 285.883 49.5675 285.458 49C285.032 48.4324 284.513 48.1486 283.899 48.1486C283.285 48.1486 282.813 48.3851 282.435 48.9054C282.057 49.5675 281.821 50.7973 281.821 52.5473Z" fill="white"/>
<path d="M288.811 52.5473C288.811 51.2702 288.952 50.277 289.188 49.473C289.472 48.7162 289.85 48.1013 290.369 47.6757C290.889 47.25 291.55 47.0608 292.306 47.0608C292.872 47.0608 293.392 47.1554 293.817 47.3919C294.242 47.6284 294.62 47.9594 294.903 48.3851C295.187 48.8108 295.423 49.3311 295.564 49.9932C295.706 50.6081 295.801 51.4594 295.801 52.5473C295.801 53.8243 295.659 54.8175 295.423 55.5743C295.187 56.3311 294.762 56.9459 294.242 57.3716C293.722 57.7973 293.061 57.9865 292.306 57.9865C291.267 57.9865 290.464 57.6081 289.897 56.8986C289.141 56 288.811 54.5338 288.811 52.5473ZM290.133 52.5473C290.133 54.2973 290.322 55.4797 290.747 56.0473C291.172 56.6148 291.644 56.8986 292.258 56.8986C292.872 56.8986 293.392 56.6148 293.77 56C294.148 55.3851 294.384 54.25 294.384 52.5C294.384 50.75 294.195 49.5675 293.77 49C293.345 48.4324 292.825 48.1486 292.211 48.1486C291.597 48.1486 291.125 48.3851 290.747 48.9054C290.369 49.5675 290.133 50.7973 290.133 52.5473Z" fill="white"/>
<path d="M297.123 55.0067L298.446 54.8175C298.587 55.5743 298.871 56.0946 299.201 56.4257C299.579 56.7567 300.004 56.8986 300.524 56.8986C301.138 56.8986 301.657 56.6621 302.082 56.2365C302.507 55.8108 302.743 55.2905 302.743 54.6284C302.743 54.0135 302.555 53.5405 302.129 53.1148C301.752 52.7365 301.232 52.5473 300.618 52.5473C300.382 52.5473 300.051 52.5946 299.673 52.6892L299.815 51.554C299.91 51.554 299.957 51.554 300.004 51.554C300.571 51.554 301.09 51.4121 301.515 51.1284C301.941 50.8446 302.177 50.3716 302.177 49.7567C302.177 49.2838 302.035 48.8581 301.704 48.5743C301.374 48.2432 300.949 48.1013 300.429 48.1013C299.91 48.1013 299.485 48.2432 299.154 48.5743C298.823 48.9054 298.587 49.3784 298.493 50.0405L297.17 49.804C297.312 48.9054 297.69 48.2432 298.257 47.7703C298.823 47.2973 299.532 47.0608 300.382 47.0608C300.949 47.0608 301.515 47.2027 301.988 47.4392C302.46 47.6757 302.838 48.054 303.121 48.4797C303.405 48.9054 303.499 49.3784 303.499 49.8513C303.499 50.3243 303.357 50.75 303.121 51.1284C302.885 51.5067 302.507 51.7905 302.035 52.027C302.649 52.1689 303.168 52.5 303.499 52.9257C303.83 53.3986 304.019 53.9662 304.019 54.6757C304.019 55.6216 303.688 56.4257 302.98 57.0405C302.318 57.7027 301.421 58.0338 300.382 58.0338C299.437 58.0338 298.682 57.75 298.02 57.1824C297.548 56.6148 297.218 55.9054 297.123 55.0067Z" fill="white"/>
<path d="M310.064 57.8446V47.1082H311.481V56.5676H316.771V57.8446H310.064Z" fill="white"/>
<path d="M320.029 57.8446V48.3852H316.486V47.1082H324.988V48.3852H321.445V57.8446H320.029Z" fill="white"/>
<path d="M326.453 57.8446V47.1082H330.137C330.987 47.1082 331.601 47.1555 332.026 47.25C332.64 47.3919 333.16 47.6284 333.585 48.0068C334.152 48.4798 334.577 49.0946 334.86 49.8514C335.143 50.6082 335.285 51.4595 335.285 52.4055C335.285 53.2095 335.191 53.919 335.002 54.5811C334.813 55.196 334.577 55.7163 334.293 56.1419C334.01 56.5676 333.679 56.8987 333.301 57.1352C332.971 57.3717 332.546 57.5609 332.026 57.6555C331.507 57.7973 330.94 57.8446 330.326 57.8446H326.453V57.8446ZM327.87 56.5676H330.137C330.846 56.5676 331.412 56.5203 331.79 56.3784C332.168 56.2365 332.499 56.0473 332.735 55.8109C333.065 55.4798 333.349 55.0068 333.538 54.4392C333.727 53.8717 333.821 53.1622 333.821 52.3582C333.821 51.223 333.632 50.3717 333.254 49.7568C332.876 49.1419 332.451 48.7636 331.932 48.5271C331.554 48.3852 330.94 48.2906 330.09 48.2906H327.823V56.5676H327.87Z" fill="white"/>
<path d="M154.395 14V58.0811" stroke="white" stroke-miterlimit="10"/>
</g>
<defs>
<clipPath id="clip0_219_1848">
<rect width="341" height="70" fill="white"/>
</clipPath>
</defs>
</svg>
