<svg width="41" height="41" viewBox="0 0 41 41" fill="none" xmlns="http://www.w3.org/2000/svg">
<g clip-path="url(#clip0_354_3746)">
<path d="M35.8284 9.88502H27.9664C27.7588 9.88502 27.5597 9.80254 27.4129 9.65573C27.2661 9.50892 27.1836 9.3098 27.1836 9.10218C27.1836 8.89455 27.2661 8.69544 27.4129 8.54862C27.5597 8.40181 27.7588 8.31934 27.9664 8.31934H35.8284C36.0361 8.31934 36.2352 8.40181 36.382 8.54862C36.5288 8.69544 36.6113 8.89455 36.6113 9.10218C36.6113 9.3098 36.5288 9.50892 36.382 9.65573C36.2352 9.80254 36.0361 9.88502 35.8284 9.88502Z" fill="white" stroke="white" stroke-width="0.91" stroke-miterlimit="10"/>
<path d="M35.8284 30.4573H27.9664C27.7588 30.4573 27.5597 30.3748 27.4129 30.228C27.2661 30.0812 27.1836 29.8821 27.1836 29.6744C27.1836 29.4668 27.2661 29.2677 27.4129 29.1209C27.5597 28.9741 27.7588 28.8916 27.9664 28.8916H35.8284C36.0361 28.8916 36.2352 28.9741 36.382 29.1209C36.5288 29.2677 36.6113 29.4668 36.6113 29.6744C36.6113 29.8821 36.5288 30.0812 36.382 30.228C36.2352 30.3748 36.0361 30.4573 35.8284 30.4573Z" fill="white" stroke="white" stroke-width="0.91" stroke-miterlimit="10"/>
<path d="M35.8284 34.9055H27.9664C27.8636 34.9055 27.7618 34.8853 27.6669 34.8459C27.5719 34.8066 27.4856 34.7489 27.4129 34.6762C27.3402 34.6035 27.2825 34.5172 27.2432 34.4223C27.2038 34.3273 27.1836 34.2255 27.1836 34.1227C27.1836 34.0199 27.2038 33.9181 27.2432 33.8231C27.2825 33.7281 27.3402 33.6418 27.4129 33.5691C27.4856 33.4964 27.5719 33.4388 27.6669 33.3994C27.7618 33.3601 27.8636 33.3398 27.9664 33.3398H35.8284C35.9312 33.3398 36.033 33.3601 36.128 33.3994C36.223 33.4388 36.3093 33.4964 36.382 33.5691C36.4547 33.6418 36.5123 33.7281 36.5517 33.8231C36.591 33.9181 36.6113 34.0199 36.6113 34.1227C36.6113 34.2255 36.591 34.3273 36.5517 34.4223C36.5123 34.5172 36.4547 34.6035 36.382 34.6762C36.3093 34.7489 36.223 34.8066 36.128 34.8459C36.033 34.8853 35.9312 34.9055 35.8284 34.9055Z" fill="white" stroke="white" stroke-width="0.91" stroke-miterlimit="10"/>
<path d="M13.0316 9.88502H5.16956C4.96194 9.88502 4.76282 9.80254 4.61601 9.65573C4.4692 9.50892 4.38672 9.3098 4.38672 9.10218C4.38672 8.89455 4.4692 8.69544 4.61601 8.54862C4.76282 8.40181 4.96194 8.31934 5.16956 8.31934H13.0316C13.2392 8.31934 13.4383 8.40181 13.5851 8.54862C13.7319 8.69544 13.8144 8.89455 13.8144 9.10218C13.8144 9.3098 13.7319 9.50892 13.5851 9.65573C13.4383 9.80254 13.2392 9.88502 13.0316 9.88502Z" fill="white" stroke="white" stroke-width="0.91" stroke-miterlimit="10"/>
<path d="M9.1012 13.8125C8.89416 13.8125 8.69555 13.7305 8.54883 13.5844C8.40212 13.4383 8.31925 13.2401 8.31836 13.033V5.17102C8.31836 4.9634 8.40084 4.76428 8.54765 4.61747C8.69446 4.47066 8.89358 4.38818 9.1012 4.38818C9.30882 4.38818 9.50794 4.47066 9.65475 4.61747C9.80156 4.76428 9.88404 4.9634 9.88404 5.17102V13.033C9.88404 13.1357 9.86377 13.2373 9.82439 13.3321C9.785 13.4269 9.72729 13.513 9.65455 13.5854C9.58181 13.6578 9.49548 13.7152 9.40053 13.7541C9.30557 13.7931 9.20384 13.8129 9.1012 13.8125Z" fill="white" stroke="white" stroke-width="0.91" stroke-miterlimit="10"/>
<path d="M11.8792 35.4601C11.6717 35.4591 11.4728 35.3771 11.3248 35.2316L5.76766 29.6745C5.69442 29.6019 5.63619 29.5156 5.5963 29.4205C5.55641 29.3254 5.53563 29.2234 5.53516 29.1203C5.5347 29.0172 5.55454 28.915 5.59357 28.8196C5.6326 28.7241 5.69004 28.6373 5.76262 28.564C5.8352 28.4908 5.9215 28.4326 6.01658 28.3927C6.11167 28.3528 6.21368 28.332 6.31679 28.3316C6.4199 28.3311 6.5221 28.3509 6.61754 28.39C6.71298 28.429 6.7998 28.4864 6.87304 28.559L12.4302 34.1262C12.5424 34.2354 12.6193 34.3756 12.651 34.5288C12.6827 34.682 12.6677 34.8413 12.608 34.9859C12.5484 35.1306 12.4467 35.254 12.3162 35.3403C12.1857 35.4267 12.0323 35.4719 11.8758 35.4702L11.8792 35.4601Z" fill="white" stroke="white" stroke-width="0.91" stroke-miterlimit="10"/>
<path d="M6.32326 35.4598C6.11562 35.4595 5.91645 35.3774 5.76889 35.2314C5.69605 35.1589 5.63825 35.0728 5.59881 34.9779C5.55937 34.8831 5.53906 34.7814 5.53906 34.6787C5.53906 34.5759 5.55937 34.4742 5.59881 34.3794C5.63825 34.2845 5.69605 34.1984 5.76889 34.126L11.326 28.5587C11.3988 28.4859 11.4853 28.4282 11.5804 28.3888C11.6755 28.3494 11.7775 28.3291 11.8804 28.3291C11.9834 28.3291 12.0853 28.3494 12.1804 28.3888C12.2756 28.4282 12.362 28.4859 12.4348 28.5587C12.5076 28.6315 12.5653 28.718 12.6047 28.8131C12.6441 28.9082 12.6644 29.0101 12.6644 29.1131C12.6644 29.2161 12.6441 29.318 12.6047 29.4131C12.5653 29.5082 12.5076 29.5947 12.4348 29.6675L6.87427 35.2314C6.72795 35.3772 6.52988 35.4594 6.32326 35.4598Z" fill="white" stroke="white" stroke-width="0.91" stroke-miterlimit="10"/>
<path d="M9.10153 18.0492C7.33193 18.0492 5.60208 17.5245 4.13071 16.5414C2.65935 15.5582 1.51256 14.1609 0.835368 12.526C0.158174 10.8911 -0.0190114 9.09209 0.326219 7.3565C0.67145 5.62091 1.52359 4.02666 2.77488 2.77537C4.02617 1.52408 5.62042 0.671938 7.35601 0.326708C9.0916 -0.0185231 10.8906 0.158662 12.5255 0.835856C14.1604 1.51305 15.5577 2.65984 16.5409 4.1312C17.524 5.60257 18.0488 7.33242 18.0488 9.10202C18.0452 11.4739 17.1014 13.7476 15.4242 15.4247C13.7471 17.1019 11.4734 18.0457 9.10153 18.0492ZM9.10153 1.71711C7.6396 1.71711 6.21051 2.15062 4.99496 2.96282C3.77941 3.77503 2.83201 4.92944 2.27256 6.28008C1.7131 7.63072 1.56672 9.11693 1.85193 10.5508C2.13714 11.9846 2.84112 13.3017 3.87486 14.3354C4.9086 15.3691 6.22566 16.0731 7.65949 16.3583C9.09333 16.6435 10.5795 16.4972 11.9302 15.9377C13.2808 15.3783 14.4352 14.4308 15.2474 13.2153C16.0596 11.9998 16.4932 10.5707 16.4932 9.10874C16.4932 7.14835 15.7144 5.26827 14.3282 3.88207C12.942 2.49587 11.0619 1.71711 9.10153 1.71711Z" fill="white" stroke="white" stroke-width="0.91" stroke-miterlimit="10"/>
<path d="M31.8984 18.0492C30.1288 18.0492 28.399 17.5245 26.9276 16.5414C25.4562 15.5582 24.3094 14.1609 23.6322 12.526C22.955 10.8911 22.7779 9.09209 23.1231 7.3565C23.4683 5.62091 24.3205 4.02666 25.5718 2.77537C26.8231 1.52408 28.4173 0.671938 30.1529 0.326708C31.8885 -0.0185231 33.6875 0.158662 35.3224 0.835856C36.9572 1.51305 38.3546 2.65984 39.3377 4.1312C40.3209 5.60257 40.8456 7.33242 40.8456 9.10202C40.8421 11.4739 39.8983 13.7476 38.2211 15.4247C36.544 17.1019 34.2703 18.0457 31.8984 18.0492ZM31.8984 1.71711C30.4365 1.71711 29.0074 2.15062 27.7918 2.96282C26.5763 3.77503 25.6289 4.92944 25.0694 6.28008C24.51 7.63072 24.3636 9.11693 24.6488 10.5508C24.934 11.9846 25.638 13.3017 26.6717 14.3354C27.7055 15.3691 29.0225 16.0731 30.4564 16.3583C31.8902 16.6435 33.3764 16.4972 34.7271 15.9377C36.0777 15.3783 37.2321 14.4308 38.0443 13.2153C38.8565 11.9998 39.29 10.5707 39.29 9.10874C39.29 7.14835 38.5113 5.26827 37.1251 3.88207C35.7389 2.49587 33.8588 1.71711 31.8984 1.71711Z" fill="white" stroke="white" stroke-width="0.91" stroke-miterlimit="10"/>
<path d="M31.8984 40.8456C30.1288 40.8456 28.399 40.3209 26.9276 39.3377C25.4562 38.3546 24.3094 36.9572 23.6322 35.3224C22.955 33.6875 22.7779 31.8885 23.1231 30.1529C23.4683 28.4173 24.3205 26.8231 25.5718 25.5718C26.8231 24.3205 28.4173 23.4683 30.1529 23.1231C31.8885 22.7779 33.6875 22.955 35.3224 23.6322C36.9572 24.3094 38.3546 25.4562 39.3377 26.9276C40.3209 28.399 40.8456 30.1288 40.8456 31.8984C40.843 34.2705 39.8995 36.5447 38.2221 38.2221C36.5447 39.8995 34.2705 40.843 31.8984 40.8456ZM31.8984 24.5169C30.4365 24.5169 29.0074 24.9504 27.7918 25.7626C26.5763 26.5748 25.6289 27.7292 25.0694 29.0798C24.51 30.4305 24.3636 31.9167 24.6488 33.3505C24.934 34.7844 25.638 36.1014 26.6717 37.1352C27.7055 38.1689 29.0225 38.8729 30.4564 39.1581C31.8902 39.4433 33.3764 39.2969 34.7271 38.7375C36.0777 38.178 37.2321 37.2306 38.0443 36.015C38.8565 34.7995 39.29 33.3704 39.29 31.9085C39.2874 29.9498 38.5074 28.0723 37.1215 26.6883C35.7356 25.3043 33.857 24.5269 31.8984 24.5269V24.5169Z" fill="white" stroke="white" stroke-width="0.91" stroke-miterlimit="10"/>
<path d="M9.10153 40.8456C7.33193 40.8456 5.60208 40.3209 4.13071 39.3377C2.65935 38.3546 1.51256 36.9572 0.835368 35.3224C0.158174 33.6875 -0.0190114 31.8885 0.326219 30.1529C0.67145 28.4173 1.52359 26.8231 2.77488 25.5718C4.02617 24.3205 5.62042 23.4683 7.35601 23.1231C9.0916 22.7779 10.8906 22.955 12.5255 23.6322C14.1604 24.3094 15.5577 25.4562 16.5409 26.9276C17.524 28.399 18.0488 30.1288 18.0488 31.8984C18.0461 34.2705 17.1026 36.5447 15.4252 38.2221C13.7479 39.8995 11.4737 40.843 9.10153 40.8456ZM9.10153 24.5169C7.6396 24.5169 6.21051 24.9504 4.99496 25.7626C3.77941 26.5748 2.83201 27.7292 2.27256 29.0798C1.7131 30.4305 1.56672 31.9167 1.85193 33.3505C2.13714 34.7844 2.84112 36.1014 3.87486 37.1352C4.9086 38.1689 6.22566 38.8729 7.65949 39.1581C9.09333 39.4433 10.5795 39.2969 11.9302 38.7375C13.2808 38.178 14.4352 37.2306 15.2474 36.015C16.0596 34.7995 16.4932 33.3704 16.4932 31.9085C16.4905 29.9498 15.7105 28.0723 14.3246 26.6883C12.9387 25.3043 11.0602 24.5269 9.10153 24.5269V24.5169Z" fill="white" stroke="white" stroke-width="0.91" stroke-miterlimit="10"/>
</g>
<defs>
<clipPath id="clip0_354_3746">
<rect width="41" height="41" fill="white"/>
</clipPath>
</defs>
</svg>
