<svg width="39" height="43" viewBox="0 0 39 46" fill="none" xmlns="http://www.w3.org/2000/svg">
<path d="M6.93945 44.1399H1.50181C1.36872 44.1399 1.24109 44.0831 1.14698 43.9819C1.05287 43.8808 1 43.7436 1 43.6005V27.24C1 27.097 1.05287 26.9598 1.14698 26.8587C1.24109 26.7575 1.36872 26.7007 1.50181 26.7007H6.93945C7.07254 26.7007 7.20018 26.7575 7.29429 26.8587C7.3884 26.9598 7.44126 27.097 7.44126 27.24V43.6005C7.44126 43.7436 7.3884 43.8808 7.29429 43.9819C7.20018 44.0831 7.07254 44.1399 6.93945 44.1399ZM2.00628 43.0583H6.44029V27.7794H2.00628V43.0583Z" fill="white" stroke="white" stroke-width="2" stroke-miterlimit="10"/>
<path d="M15.8146 34.7828C15.6953 34.7817 15.5802 34.7349 15.4901 34.6509C15.4 34.5669 15.3406 34.4511 15.3227 34.3243C15.3048 34.1976 15.3295 34.0681 15.3924 33.9591C15.4553 33.8501 15.5523 33.7688 15.6659 33.7297L19.5609 32.4284C19.6322 32.4047 19.7074 32.3979 19.7813 32.4084L27.0722 33.5128C27.3055 33.5491 27.5429 33.4893 27.7369 33.3453C27.9309 33.2014 28.0672 32.984 28.1183 32.7366L28.1794 32.4513C28.2336 32.1922 28.1908 31.9205 28.0601 31.6952C27.9294 31.4698 27.7214 31.3088 27.4811 31.247L19.8025 29.275C19.4682 29.1895 19.1207 29.1807 18.783 29.2494L7.03418 31.5809C6.96782 31.5985 6.89881 31.6013 6.83138 31.5892C6.76396 31.5771 6.69955 31.5504 6.64209 31.5106C6.58463 31.4708 6.53535 31.4188 6.49726 31.3578C6.45916 31.2968 6.43307 31.2281 6.42057 31.1558C6.40807 31.0836 6.40943 31.0094 6.42457 30.9378C6.43971 30.8661 6.46831 30.7985 6.50861 30.7392C6.54891 30.6799 6.60007 30.63 6.65894 30.5927C6.71782 30.5553 6.78316 30.5313 6.85098 30.5221L18.5998 28.1878C19.0749 28.093 19.5632 28.1057 20.0335 28.2249L27.7121 30.174C28.2096 30.3023 28.6402 30.6358 28.911 31.1024C29.1817 31.5691 29.2708 32.1315 29.1591 32.6681L29.0954 32.9535C28.991 33.4653 28.7099 33.9154 28.3087 34.2131C27.9076 34.5108 27.4164 34.6338 26.9341 34.5573L19.7654 33.4729L15.9659 34.7457C15.9176 34.7666 15.8665 34.7791 15.8146 34.7828Z" fill="white" stroke="white" stroke-width="2" stroke-miterlimit="10"/>
<path d="M15.3104 40.9323C12.494 40.932 9.68005 40.7538 6.88311 40.3986C6.81537 40.3936 6.74928 40.3738 6.68885 40.3405C6.62843 40.3072 6.57492 40.261 6.53157 40.2049C6.48822 40.1487 6.45593 40.0836 6.43665 40.0136C6.41738 39.9437 6.41152 39.8702 6.41943 39.7977C6.42735 39.7252 6.44887 39.6552 6.48269 39.5919C6.51652 39.5286 6.56194 39.4734 6.61621 39.4295C6.67049 39.3856 6.73248 39.3541 6.79844 39.3367C6.86439 39.3193 6.93294 39.3165 6.99994 39.3285C15.9919 40.4734 25.1049 39.7448 33.8403 37.1825L35.3219 36.7487C35.5024 36.6957 35.6641 36.5858 35.7861 36.4331C35.908 36.2805 35.9846 36.0921 36.0061 35.8922C36.0275 35.6923 35.9927 35.4901 35.9063 35.3117C35.8198 35.1332 35.6856 34.9866 35.521 34.8909C35.3852 34.8174 35.2349 34.7802 35.0829 34.7825L27.0008 34.5855C26.8677 34.5855 26.7401 34.5287 26.6459 34.4276C26.5518 34.3264 26.499 34.1892 26.499 34.0462C26.499 33.9031 26.5518 33.766 26.6459 33.6648C26.7401 33.5637 26.8677 33.5068 27.0008 33.5068L35.0749 33.7037C35.3921 33.7068 35.7038 33.793 35.983 33.9549C36.3247 34.1527 36.6034 34.4562 36.7831 34.826C36.9627 35.1959 37.0351 35.6151 36.9907 36.0296C36.9464 36.4441 36.7875 36.8348 36.5345 37.1512C36.2815 37.4676 35.946 37.6952 35.5714 37.8046L34.0899 38.2383C27.9691 40.0283 21.6537 40.9343 15.3104 40.9323Z" fill="white" stroke="white" stroke-width="2" stroke-miterlimit="10"/>
<path d="M18.9508 15.828C18.3862 15.8326 17.8288 15.6917 17.3252 15.4171C16.8217 15.1425 16.3867 14.7423 16.0567 14.2499C16.0166 14.1937 15.9872 14.1295 15.9702 14.0611C15.9531 13.9927 15.9488 13.9213 15.9574 13.8511C15.9661 13.7809 15.9875 13.7131 16.0205 13.6518C16.0534 13.5905 16.0973 13.5367 16.1496 13.4936C16.2019 13.4505 16.2616 13.4189 16.3253 13.4006C16.3889 13.3823 16.4553 13.3777 16.5207 13.387C16.586 13.3962 16.649 13.4193 16.7061 13.4547C16.7631 13.4901 16.8131 13.5373 16.8532 13.5935C18.2312 15.5284 20.2119 14.4496 20.3049 14.4125L20.35 14.3926C20.5926 14.2654 20.7912 14.0587 20.9172 13.8022C21.0432 13.5456 21.0901 13.2527 21.0509 12.9657C21.018 12.6352 20.8963 12.3221 20.7006 12.0647C20.505 11.8073 20.2438 11.6166 19.9491 11.516L17.7799 10.8111C16.609 10.4401 15.9956 9.60399 16.0063 8.39971C16.0063 7.8147 16.2505 5.93123 19.0145 5.93123H19.0862C19.7332 5.90984 20.3697 6.11161 20.9024 6.507C21.4351 6.90239 21.836 7.47064 22.0466 8.12861C22.0651 8.19663 22.0709 8.26789 22.0638 8.33833C22.0566 8.40878 22.0366 8.47702 22.005 8.53916C21.9733 8.6013 21.9305 8.65612 21.8791 8.7005C21.8277 8.74488 21.7687 8.77795 21.7054 8.79781C21.6421 8.81767 21.5758 8.82394 21.5103 8.81626C21.4448 8.80858 21.3813 8.78711 21.3234 8.75305C21.2656 8.719 21.2146 8.67304 21.1733 8.6178C21.132 8.56256 21.1013 8.49912 21.0828 8.43111C21.0642 8.36832 20.6633 7.02706 19.0755 7.00423C18.1277 7.00423 17.0232 7.22968 17.0125 8.40257C17.0125 8.91339 17.1267 9.47272 18.0746 9.77236C19.1366 10.112 20.2358 10.463 20.2358 10.463C20.2969 10.4829 21.8926 10.9966 22.0493 12.8401C22.1098 13.3569 22.0162 13.881 21.7819 14.3369C21.5477 14.7928 21.1848 15.157 20.7456 15.3771C20.1879 15.6747 19.5734 15.8291 18.9508 15.828Z" fill="white" stroke="white" stroke-width="2" stroke-miterlimit="10"/>
<path d="M19.0819 7.02207C18.9488 7.02207 18.8212 6.96524 18.7271 6.86409C18.6329 6.76294 18.5801 6.62576 18.5801 6.48271V4.64776C18.5801 4.50471 18.6329 4.36752 18.7271 4.26637C18.8212 4.16522 18.9488 4.1084 19.0819 4.1084C19.215 4.1084 19.3426 4.16522 19.4367 4.26637C19.5308 4.36752 19.5837 4.50471 19.5837 4.64776V6.48271C19.5841 6.55365 19.5713 6.62395 19.5462 6.68956C19.5211 6.75517 19.4842 6.81478 19.4375 6.86494C19.3908 6.9151 19.3354 6.95481 19.2743 6.98178C19.2133 7.00875 19.1479 7.02245 19.0819 7.02207Z" fill="white" stroke="white" stroke-width="2" stroke-miterlimit="10"/>
<path d="M19.0819 17.7794C19.016 17.7794 18.9507 17.7654 18.8899 17.7383C18.829 17.7112 18.7737 17.6715 18.7271 17.6214C18.6805 17.5713 18.6435 17.5119 18.6183 17.4464C18.5931 17.381 18.5801 17.3109 18.5801 17.24V15.4051C18.5801 15.262 18.6329 15.1248 18.7271 15.0237C18.8212 14.9225 18.9488 14.8657 19.0819 14.8657C19.215 14.8657 19.3426 14.9225 19.4367 15.0237C19.5308 15.1248 19.5837 15.262 19.5837 15.4051V17.24C19.5837 17.3109 19.5707 17.381 19.5455 17.4464C19.5203 17.5119 19.4833 17.5713 19.4367 17.6214C19.3901 17.6715 19.3348 17.7112 19.2739 17.7383C19.213 17.7654 19.1478 17.7794 19.0819 17.7794Z" fill="white" stroke="white" stroke-width="2" stroke-miterlimit="10"/>
<path d="M19.0099 21.37C17.1357 21.3706 15.3033 20.7737 13.7446 19.6549C12.1859 18.5361 10.971 16.9456 10.2533 15.0846C9.53571 13.2236 9.34767 11.1756 9.71301 9.19976C10.0783 7.22388 10.9806 5.40881 12.3058 3.98413C13.6309 2.55945 15.3194 1.58914 17.1576 1.19592C18.9959 0.802694 20.9013 1.00422 22.633 1.77502C24.3647 2.54581 25.8448 3.85125 26.8861 5.52623C27.9275 7.2012 28.4833 9.17048 28.4833 11.185C28.4812 13.885 27.4825 16.4739 25.7065 18.3834C23.9304 20.2929 21.522 21.367 19.0099 21.37ZM19.0099 2.08157C17.3348 2.08157 15.6972 2.61548 14.3044 3.61578C12.9116 4.61608 11.826 6.03784 11.1849 7.70127C10.5439 9.36471 10.3761 11.1951 10.7029 12.961C11.0297 14.7269 11.8364 16.349 13.0209 17.6221C14.2054 18.8952 15.7146 19.7623 17.3576 20.1135C19.0006 20.4648 20.7035 20.2845 22.2512 19.5955C23.7988 18.9065 25.1216 17.7397 26.0523 16.2426C26.983 14.7456 27.4797 12.9855 27.4797 11.185C27.4769 8.77155 26.5836 6.45781 24.9959 4.75124C23.4081 3.04467 21.2554 2.08459 19.0099 2.08157Z" fill="white" stroke="white" stroke-width="2" stroke-miterlimit="10"/>
</svg>
