<svg width="38" height="41" viewBox="0 0 38 41" fill="none" xmlns="http://www.w3.org/2000/svg">
<g clip-path="url(#clip0_354_3822)">
<path d="M7.41406 33.105H17.734" stroke="white" stroke-width="2" stroke-linecap="round" stroke-linejoin="round"/>
<path d="M7.41406 27.502H17.734" stroke="white" stroke-width="2" stroke-linecap="round" stroke-linejoin="round"/>
<path d="M7.41406 16.2954H17.734" stroke="white" stroke-width="2" stroke-linecap="round" stroke-linejoin="round"/>
<path d="M7.41406 21.8984H17.734" stroke="white" stroke-width="2" stroke-linecap="round" stroke-linejoin="round"/>
<path d="M29.5674 12.247H19.1452C19.0383 12.2475 18.9324 12.2268 18.8335 12.1862C18.7347 12.1456 18.6448 12.0859 18.569 12.0105C18.4933 11.9351 18.4332 11.8454 18.3922 11.7467C18.3512 11.648 18.3301 11.5422 18.3301 11.4353V1.02334C18.3287 0.860681 18.3761 0.701334 18.466 0.565801C18.556 0.430268 18.6844 0.324749 18.8348 0.262819C18.9827 0.200951 19.1457 0.184453 19.303 0.215424C19.4602 0.246395 19.6048 0.323435 19.7181 0.43675L30.1404 10.8624C30.2547 10.9751 30.3326 11.1195 30.3642 11.2769C30.3958 11.4343 30.3796 11.5976 30.3177 11.7457C30.2559 11.8938 30.1517 12.0205 30.0183 12.1096C29.8848 12.1988 29.728 12.2466 29.5674 12.247ZM19.9569 10.6237H27.6235L19.9569 2.9741V10.6237Z" fill="white" stroke="white" stroke-width="1.18" stroke-miterlimit="10"/>
<path d="M29.5679 40.7992H1.02273C0.916014 40.7997 0.810263 40.779 0.711582 40.7384C0.612901 40.6977 0.523243 40.638 0.447782 40.5625C0.37232 40.487 0.31255 40.3974 0.271919 40.2987C0.231288 40.2 0.210602 40.0943 0.211053 39.9876V1.02358C0.209236 0.916004 0.228914 0.809151 0.268933 0.709282C0.308952 0.609413 0.368507 0.518539 0.444106 0.441987C0.519704 0.365435 0.609825 0.304747 0.709185 0.26348C0.808545 0.222213 0.915144 0.201199 1.02273 0.201668H19.1457C19.3601 0.202027 19.5658 0.286523 19.7186 0.436986L30.1408 10.8626C30.2167 10.9375 30.2769 11.0267 30.3179 11.125C30.3589 11.2234 30.3799 11.329 30.3796 11.4356V12.7827C30.3796 12.998 30.2941 13.2044 30.1418 13.3566C29.9896 13.5088 29.7832 13.5944 29.5679 13.5944C29.3526 13.5944 29.1462 13.5088 28.994 13.3566C28.8417 13.2044 28.7562 12.998 28.7562 12.7827V11.7596L18.808 1.82502H1.82418V39.1759H29.5679C29.7832 39.1759 29.9896 39.2614 30.1418 39.4136C30.2941 39.5658 30.3796 39.7723 30.3796 39.9876C30.3796 40.2028 30.2941 40.4093 30.1418 40.5615C29.9896 40.7137 29.7832 40.7992 29.5679 40.7992Z" fill="white" stroke="white" stroke-width="1.18" stroke-miterlimit="10"/>
<path d="M29.5688 30.6528C28.0423 30.6535 26.5498 30.2014 25.2801 29.3538C24.0105 28.5062 23.0208 27.3011 22.4361 25.8909C21.8515 24.4807 21.6981 22.9288 21.9955 21.4315C22.2929 19.9342 23.0277 18.5587 24.1069 17.479C25.1861 16.3993 26.5613 15.6639 28.0585 15.3658C29.5557 15.0678 31.1077 15.2204 32.5181 15.8044C33.9285 16.3885 35.1341 17.3777 35.9823 18.6469C36.8305 19.9162 37.2832 21.4085 37.2832 22.9351C37.2814 24.9808 36.4682 26.9423 35.0219 28.3891C33.5757 29.836 31.6146 30.6501 29.5688 30.6528ZM29.5688 16.8441C28.3641 16.8441 27.1865 17.2013 26.1849 17.8706C25.1832 18.5399 24.4025 19.4911 23.9415 20.6041C23.4805 21.7171 23.3599 22.9418 23.5949 24.1234C23.8299 25.3049 24.41 26.3902 25.2619 27.242C26.1137 28.0939 27.199 28.674 28.3805 28.909C29.5621 29.144 30.7868 29.0234 31.8998 28.5624C33.0127 28.1014 33.964 27.3207 34.6333 26.319C35.3026 25.3174 35.6598 24.1397 35.6598 22.9351C35.658 21.3202 35.0157 19.772 33.8738 18.6301C32.7319 17.4882 31.1837 16.8459 29.5688 16.8441Z" fill="white" stroke="white" stroke-miterlimit="10"/>
<path d="M29.5675 35.4004C29.4608 35.4009 29.3551 35.3802 29.2564 35.3396C29.1577 35.2989 29.0681 35.2392 28.9926 35.1637C28.9171 35.0882 28.8574 34.9986 28.8167 34.8999C28.7761 34.8012 28.7554 34.6955 28.7559 34.5888V29.8415C28.7559 29.6262 28.8414 29.4197 28.9936 29.2675C29.1458 29.1153 29.3523 29.0298 29.5675 29.0298C29.7828 29.0298 29.9893 29.1153 30.1415 29.2675C30.2937 29.4197 30.3792 29.6262 30.3792 29.8415V34.5888C30.3797 34.6955 30.359 34.8012 30.3184 34.8999C30.2777 34.9986 30.218 35.0882 30.1425 35.1637C30.067 35.2392 29.9774 35.2989 29.8787 35.3396C29.78 35.3802 29.6743 35.4009 29.5675 35.4004Z" fill="white" stroke="white" stroke-width="1.18" stroke-miterlimit="10"/>
<path d="M29.5675 40.7991C29.4608 40.7995 29.3551 40.7789 29.2564 40.7382C29.1577 40.6976 29.0681 40.6378 28.9926 40.5624C28.9171 40.4869 28.8574 40.3972 28.8167 40.2986C28.7761 40.1999 28.7554 40.0941 28.7559 39.9874V37.7638C28.7559 37.5486 28.8414 37.3421 28.9936 37.1899C29.1458 37.0377 29.3523 36.9521 29.5675 36.9521C29.7828 36.9521 29.9893 37.0377 30.1415 37.1899C30.2937 37.3421 30.3792 37.5486 30.3792 37.7638V39.9874C30.3797 40.0941 30.359 40.1999 30.3184 40.2986C30.2777 40.3972 30.218 40.4869 30.1425 40.5624C30.067 40.6378 29.9774 40.6976 29.8787 40.7382C29.78 40.7789 29.6743 40.7995 29.5675 40.7991Z" fill="white" stroke="white" stroke-width="1.18" stroke-miterlimit="10"/>
<path d="M28.8644 25.5033C28.6496 25.5017 28.4439 25.416 28.2915 25.2646L26.1872 23.1604C26.1118 23.0849 26.0519 22.9953 26.0111 22.8967C25.9702 22.7981 25.9492 22.6924 25.9492 22.5857C25.9492 22.479 25.9702 22.3733 26.0111 22.2747C26.0519 22.1761 26.1118 22.0865 26.1872 22.0111C26.2627 21.9356 26.3523 21.8757 26.4509 21.8349C26.5495 21.7941 26.6552 21.773 26.7619 21.773C26.8686 21.773 26.9743 21.7941 27.0729 21.8349C27.1715 21.8757 27.2611 21.9356 27.3366 22.0111L28.8644 23.5321L31.8008 20.5992C31.8743 20.5165 31.9639 20.4497 32.0641 20.4029C32.1643 20.3561 32.2731 20.3303 32.3836 20.327C32.4942 20.3238 32.6042 20.3431 32.7071 20.384C32.8099 20.4248 32.9032 20.4862 32.9814 20.5644C33.0597 20.6426 33.1211 20.736 33.1619 20.8388C33.2027 20.9416 33.2221 21.0517 33.2188 21.1622C33.2156 21.2728 33.1898 21.3815 33.143 21.4817C33.0962 21.582 33.0294 21.6716 32.9467 21.745L29.4408 25.2646C29.2873 25.4165 29.0804 25.5022 28.8644 25.5033Z" fill="white" stroke="white" stroke-width="1.18" stroke-miterlimit="10"/>
</g>
<defs>
<clipPath id="clip0_354_3822">
<rect width="37.4839" height="41" fill="white"/>
</clipPath>
</defs>
</svg>
