<svg width="26" height="26" viewBox="0 0 26 26" fill="none" xmlns="http://www.w3.org/2000/svg">
<circle cx="13" cy="13" r="13" fill="white"/>
<path d="M12.75 16.125C14.4759 16.125 15.875 14.7259 15.875 13C15.875 11.2741 14.4759 9.875 12.75 9.875C11.0241 9.875 9.625 11.2741 9.625 13C9.625 14.7259 11.0241 16.125 12.75 16.125Z" stroke="black" stroke-width="1.5" stroke-miterlimit="10"/>
<path d="M16.1875 5.8125H9.3125C7.24143 5.8125 5.5625 7.49143 5.5625 9.5625V16.4375C5.5625 18.5086 7.24143 20.1875 9.3125 20.1875H16.1875C18.2586 20.1875 19.9375 18.5086 19.9375 16.4375V9.5625C19.9375 7.49143 18.2586 5.8125 16.1875 5.8125Z" stroke="black" stroke-width="1.5" stroke-linecap="round" stroke-linejoin="round"/>
<path d="M16.8125 9.875C17.3303 9.875 17.75 9.45527 17.75 8.9375C17.75 8.41973 17.3303 8 16.8125 8C16.2947 8 15.875 8.41973 15.875 8.9375C15.875 9.45527 16.2947 9.875 16.8125 9.875Z" fill="black"/>
</svg>
