<svg width="52" height="66" viewBox="0 0 52 66" fill="none" xmlns="http://www.w3.org/2000/svg">
<path d="M25.9999 65.6842C21.3086 61.7535 16.9601 57.4443 13 52.8017C7.05713 45.8296 3.26446e-06 35.4462 3.26446e-06 25.5517C-0.00257407 20.4985 1.52103 15.5581 4.378 11.3558C7.23496 7.1535 11.2969 3.87815 16.0496 1.94427C20.8024 0.010386 26.0324 -0.495089 31.0778 0.491812C36.1231 1.47871 40.757 3.91363 44.393 7.4884C46.8138 9.8557 48.7326 12.6711 50.0383 15.7717C51.344 18.8722 52.0107 22.1964 51.9999 25.5517C51.9999 35.4462 44.9427 45.8296 38.9999 52.8017C35.0398 57.4443 30.6913 61.7535 25.9999 65.6842ZM25.9999 14.6065C23.0447 14.6065 20.2105 15.7596 18.1208 17.8122C16.0311 19.8649 14.8571 22.6488 14.8571 25.5517C14.8571 28.4545 16.0311 31.2385 18.1208 33.2911C20.2105 35.3438 23.0447 36.4969 25.9999 36.4969C28.9552 36.4969 31.7894 35.3438 33.8791 33.2911C35.9688 31.2385 37.1428 28.4545 37.1428 25.5517C37.1428 22.6488 35.9688 19.8649 33.8791 17.8122C31.7894 15.7596 28.9552 14.6065 25.9999 14.6065Z" fill="#ED1A3B"/>
</svg>
