<svg width="16" height="19" viewBox="0 0 16 19" fill="none"
    xmlns="http://www.w3.org/2000/svg">
    <path d="M3.54803 5.1514C3.54803 6.48475 4.15349 7.6782 5.10149 8.46757C3.86984 9.02202 2.68309 10.1628 1.7884 11.5067C0.835252 12.9384 0.197656 14.6242 0.197656 16.1215C0.197656 16.7965 0.472585 17.3108 0.921144 17.6522C1.36468 17.9898 1.96616 18.15 2.61328 18.15H13.0214C13.6685 18.15 14.27 17.9898 14.7136 17.6522C15.1621 17.3108 15.437 16.7965 15.437 16.1215C15.437 14.6242 14.7995 12.9384 13.8463 11.5067C12.9516 10.1628 11.7649 9.02202 10.5332 8.46757C11.4812 7.6782 12.0867 6.48475 12.0867 5.1514C12.0867 2.78057 10.1727 0.85 7.81735 0.85C5.46202 0.85 3.54803 2.78057 3.54803 5.1514ZM5.08384 5.1514C5.08384 3.6308 6.31132 2.39543 7.81735 2.39543C9.32338 2.39543 10.5509 3.6308 10.5509 5.1514C10.5509 6.67201 9.32338 7.9074 7.81735 7.9074C6.31132 7.9074 5.08384 6.67201 5.08384 5.1514ZM13.0212 16.6046H2.61328C2.34024 16.6046 2.11156 16.5627 1.95662 16.4792C1.8115 16.4009 1.73347 16.2895 1.73347 16.1215C1.73347 14.6232 2.50416 12.9525 3.66248 11.6531C4.82166 10.3526 6.34264 9.45277 7.81738 9.45277C9.29213 9.45277 10.8131 10.3526 11.9723 11.6531C13.1306 12.9525 13.9013 14.6232 13.9013 16.1215C13.9013 16.3313 13.7374 16.4567 13.4923 16.532C13.376 16.5678 13.2577 16.5862 13.1671 16.5955C13.1221 16.6001 13.0848 16.6023 13.0591 16.6035C13.0463 16.604 13.0364 16.6043 13.0299 16.6044L13.0229 16.6046L13.0214 16.6046L13.0214 16.6046H13.0212Z" fill="white" stroke="white" stroke-width="0.3"/>
</svg>
