<svg width="44" height="41" viewBox="0 0 44 41" fill="none" xmlns="http://www.w3.org/2000/svg">
<g clip-path="url(#clip0_354_3857)">
<path d="M37.5096 3.7453L36.386 2.6217L37.5096 1.49811L36.386 0.374512L26.2736 10.4869L27.3972 11.6105L34.1388 4.86889L35.2624 5.99249L27.5582 13.7116H0.277344V40.7228H35.2287V15.0299L43.1275 7.11608L38.6331 2.6217L37.5096 3.7453ZM33.6406 39.1311H1.87285V15.3034H25.9702L18.4084 22.8464L16.1612 29.588L22.9028 27.3408L33.6406 16.618V39.1311ZM21.783 26.2172L19.5358 23.97L38.6369 4.86889L40.8841 7.11608L21.783 26.2172Z" fill="white" stroke="white" stroke-miterlimit="10"/>
<path d="M14.5729 26.4233H5.04102V28.0114H14.5729V26.4233Z" fill="white" stroke="white" stroke-miterlimit="10"/>
<path d="M16.1609 20.0674H5.04102V21.6554H16.1609V20.0674Z" fill="white" stroke="white" stroke-miterlimit="10"/>
<path d="M30.4605 32.7788H5.04102V34.3668H30.4605V32.7788Z" fill="white" stroke="white" stroke-miterlimit="10"/>
</g>
<defs>
<clipPath id="clip0_354_3857">
<rect width="43.5169" height="41" fill="white"/>
</clipPath>
</defs>
</svg>
