<svg width="42" height="43" viewBox="0 0 42 43" fill="none" xmlns="http://www.w3.org/2000/svg">
<path d="M39.7759 17.4934C39.7767 20.5576 38.8925 23.5533 37.2351 26.1019C35.5776 28.6504 33.2213 30.6374 30.464 31.8117C27.7067 32.986 24.6721 33.2949 21.7438 32.6994C18.8154 32.1039 16.1248 30.6307 14.012 28.4659C11.8992 26.3012 10.459 23.5421 9.8734 20.5374C9.28782 17.5327 9.58318 14.4172 10.7221 11.5848C11.8611 8.75231 13.7925 6.33001 16.2723 4.624C18.7521 2.918 21.6689 2.00487 24.6541 2.00002C26.6385 1.9968 28.604 2.39514 30.4383 3.17226C32.2725 3.94938 33.9396 5.09004 35.344 6.529C36.7485 7.96796 37.8628 9.677 38.6233 11.5584C39.3837 13.4397 39.7754 15.4565 39.7759 17.4934V17.4934Z" stroke="white" stroke-width="4" stroke-linecap="round" stroke-linejoin="round"/>
<path d="M9.79967 32.7539L2 40.76" stroke="white" stroke-width="4" stroke-linecap="round" stroke-linejoin="round"/>
</svg>
