<svg width="43" height="43" viewBox="0 0 43 43" fill="none" xmlns="http://www.w3.org/2000/svg">
<path d="M22.2701 41.23H19.9599C19.1906 41.23 18.4528 40.9246 17.9085 40.381C17.3642 39.8374 17.058 39.0999 17.057 38.3307V36.2633C15.732 35.9094 14.4594 35.3824 13.2722 34.6958L11.8118 36.1562C11.2675 36.6997 10.5297 37.0051 9.76048 37.0051C8.99124 37.0051 8.25346 36.6997 7.70917 36.1562L6.07383 34.5244C5.53004 33.9795 5.22463 33.2411 5.22463 32.4713C5.22463 31.7015 5.53004 30.9631 6.07383 30.4182L7.53421 28.9578C6.84817 27.7708 6.3223 26.4981 5.97028 25.173H3.9029C3.13329 25.172 2.39548 24.8659 1.85128 24.3217C1.30709 23.7775 1.00094 23.0397 1 22.2701V19.9599C1.00094 19.1903 1.30709 18.4525 1.85128 17.9083C2.39548 17.3641 3.13329 17.058 3.9029 17.057H5.96671C6.32217 15.7325 6.84912 14.4601 7.53421 13.2722L6.07383 11.8118C5.53025 11.2675 5.22494 10.5297 5.22494 9.76048C5.22494 8.99124 5.53025 8.25346 6.07383 7.70917L7.70917 6.07383C7.97844 5.80425 8.2982 5.59039 8.65018 5.44447C9.00216 5.29856 9.37945 5.22346 9.76048 5.22346C10.1415 5.22346 10.5188 5.29856 10.8708 5.44447C11.2228 5.59039 11.5425 5.80425 11.8118 6.07383L13.2722 7.53421C14.4601 6.84913 15.7325 6.32217 17.057 5.96671V3.89933C17.058 3.13005 17.3642 2.3926 17.9085 1.84898C18.4528 1.30535 19.1906 0.999999 19.9599 1H22.2701C23.0394 0.999999 23.7772 1.30535 24.3215 1.84898C24.8658 2.3926 25.172 3.13005 25.173 3.89933V5.96671C26.4977 6.32151 27.7702 6.8485 28.9578 7.53421L30.4182 6.07383C30.9631 5.53004 31.7015 5.22463 32.4713 5.22463C33.2411 5.22463 33.9795 5.53004 34.5244 6.07383L36.1562 7.70917C36.6997 8.25346 37.0051 8.99124 37.0051 9.76048C37.0051 10.5297 36.6997 11.2675 36.1562 11.8118L34.6958 13.2722C35.3845 14.4584 35.9116 15.7312 36.2633 17.057H38.3307C39.1003 17.058 39.8381 17.3641 40.3823 17.9083C40.9265 18.4525 41.2326 19.1903 41.2336 19.9599V22.2701C41.2326 23.0397 40.9265 23.7775 40.3823 24.3217C39.8381 24.8659 39.1003 25.172 38.3307 25.173H36.2633C35.9116 26.4988 35.3845 27.7716 34.6958 28.9578L36.1562 30.4182C36.7 30.9631 37.0054 31.7015 37.0054 32.4713C37.0054 33.2411 36.7 33.9795 36.1562 34.5244L34.5244 36.1562C33.9795 36.7 33.2411 37.0054 32.4713 37.0054C31.7015 37.0054 30.9631 36.7 30.4182 36.1562L28.9578 34.6958C27.7709 35.383 26.4982 35.9101 25.173 36.2633V38.3307C25.172 39.0999 24.8658 39.8374 24.3215 40.381C23.7772 40.9246 23.0394 41.23 22.2701 41.23ZM13.4757 33.5353C14.7919 34.3478 16.2302 34.9433 17.7354 35.2992C17.8557 35.3286 17.9628 35.3972 18.0397 35.4942C18.1167 35.5912 18.1591 35.711 18.1603 35.8348V38.3342C18.1603 38.8077 18.3484 39.2618 18.6832 39.5966C19.018 39.9314 19.4721 40.1195 19.9456 40.1195H22.2558C22.7293 40.1195 23.1834 39.9314 23.5182 39.5966C23.853 39.2618 24.0411 38.8077 24.0411 38.3342V35.8348C24.0417 35.7109 24.0839 35.5907 24.161 35.4936C24.238 35.3965 24.3454 35.328 24.466 35.2992C25.9711 34.9427 27.4092 34.3472 28.7257 33.5353L28.7686 33.5103C28.8796 33.4563 29.0054 33.4406 29.1262 33.4658C29.2471 33.491 29.3562 33.5557 29.4363 33.6496L31.1645 35.3778C31.3306 35.5467 31.5287 35.6809 31.7473 35.7725C31.9658 35.8641 32.2004 35.9113 32.4374 35.9113C32.6743 35.9113 32.9089 35.8641 33.1275 35.7725C33.346 35.6809 33.5442 35.5467 33.7103 35.3778L35.3456 33.746C35.6836 33.4079 35.8735 32.9494 35.8735 32.4713C35.8735 31.9932 35.6836 31.5347 35.3456 31.1966L33.6567 29.4684C33.5956 29.4165 33.5464 29.3519 33.5125 29.2792C33.4786 29.2065 33.4608 29.1273 33.4604 29.0471C33.4604 28.9389 33.4927 28.8333 33.5532 28.7436C34.3601 27.4296 34.9519 25.9952 35.3064 24.4946C35.3358 24.3747 35.4046 24.2681 35.5016 24.1917C35.5987 24.1154 35.7185 24.0737 35.842 24.0732H38.3414C38.8149 24.0732 39.269 23.8852 39.6038 23.5503C39.9386 23.2155 40.1267 22.7614 40.1267 22.2879V19.9599C40.122 19.4879 39.9324 19.0365 39.5986 18.7027C39.2648 18.3688 38.8134 18.1793 38.3414 18.1746H35.842C35.7185 18.1742 35.5987 18.1325 35.5016 18.0561C35.4046 17.9798 35.3358 17.8732 35.3064 17.7533C34.952 16.2475 34.3564 14.809 33.5425 13.4935C33.4784 13.3878 33.4514 13.2637 33.4656 13.1409C33.4798 13.0181 33.5345 12.9035 33.621 12.8151L35.3849 11.0513C35.5539 10.8851 35.6881 10.687 35.7797 10.4684C35.8713 10.2499 35.9184 10.0153 35.9184 9.77833C35.9184 9.54137 35.8713 9.30677 35.7797 9.08823C35.6881 8.86968 35.5539 8.67156 35.3849 8.50541L33.7496 6.87007C33.4072 6.54165 32.9511 6.35827 32.4767 6.35827C32.0022 6.35827 31.5461 6.54165 31.2037 6.87007L29.4399 8.63395C29.3524 8.72075 29.2384 8.77568 29.116 8.78992C28.9937 8.80416 28.87 8.7769 28.765 8.71251C27.4474 7.90276 26.0096 7.30739 24.5053 6.94863C24.3841 6.92101 24.276 6.85289 24.1987 6.75551C24.1215 6.65814 24.0797 6.53733 24.0804 6.41304V3.91361C24.0804 3.44012 23.8923 2.98602 23.5575 2.65121C23.2227 2.3164 22.7686 2.12831 22.2951 2.12831H19.9599C19.4864 2.12831 19.0323 2.3164 18.6975 2.65121C18.3627 2.98602 18.1746 3.44012 18.1746 3.91361V6.41304C18.1746 6.53716 18.1327 6.65765 18.0555 6.75489C17.9784 6.85214 17.8706 6.92042 17.7497 6.94863C16.2452 7.30675 14.8073 7.90216 13.49 8.71251C13.3846 8.7778 13.2602 8.80558 13.1371 8.79132C13.0139 8.77706 12.8992 8.7216 12.8116 8.63395L11.0477 6.87007C10.7053 6.54165 10.2492 6.35827 9.77476 6.35827C9.30032 6.35827 8.84423 6.54165 8.50184 6.87007L6.8665 8.50541C6.69755 8.67156 6.56336 8.86968 6.47176 9.08823C6.38016 9.30677 6.33299 9.54137 6.33299 9.77833C6.33299 10.0153 6.38016 10.2499 6.47176 10.4684C6.56336 10.687 6.69755 10.8851 6.8665 11.0513L8.63038 12.8151C8.71803 12.9028 8.77349 13.0175 8.78775 13.1407C8.80201 13.2638 8.77423 13.3882 8.70893 13.4935C7.89859 14.8108 7.30318 16.2487 6.94506 17.7533C6.91674 17.8738 6.84832 17.9811 6.75101 18.0577C6.6537 18.1342 6.53327 18.1755 6.40947 18.1746H3.91004C3.43828 18.1802 2.9874 18.37 2.65379 18.7037C2.32018 19.0373 2.1303 19.4881 2.12474 19.9599V22.2701C2.12473 22.506 2.17149 22.7397 2.26233 22.9574C2.35316 23.1752 2.48626 23.3728 2.65394 23.5388C2.82162 23.7049 3.02054 23.836 3.23921 23.9247C3.45787 24.0133 3.69195 24.0578 3.9279 24.0554H6.42732C6.55113 24.0545 6.67155 24.0958 6.76886 24.1723C6.86617 24.2489 6.93459 24.3562 6.96291 24.4767C7.32017 25.977 7.91311 27.4112 8.71965 28.7257C8.71965 28.7257 8.7375 28.7579 8.74821 28.7757C8.80489 28.8868 8.82268 29.0136 8.79872 29.136C8.77477 29.2583 8.71047 29.3691 8.6161 29.4506L6.88436 31.1787C6.54639 31.5169 6.35654 31.9754 6.35654 32.4535C6.35654 32.9315 6.54639 33.39 6.88436 33.7282L8.51969 35.3599C8.68584 35.5289 8.88397 35.6631 9.10251 35.7547C9.32106 35.8463 9.55565 35.8934 9.79261 35.8934C10.0296 35.8934 10.2642 35.8463 10.4827 35.7547C10.7013 35.6631 10.8994 35.5289 11.0655 35.3599L12.7616 33.6567C12.8423 33.5625 12.952 33.4977 13.0734 33.4725C13.1949 33.4473 13.3213 33.4632 13.4328 33.5175L13.4757 33.5425V33.5353Z" fill="white" stroke="white" stroke-width="2" stroke-miterlimit="10"/>
<path d="M20.947 29.0148C19.9881 29.0228 19.0414 28.7999 18.1868 28.3648C17.3323 27.9298 16.595 27.2954 16.0374 26.5153C15.9905 26.4579 15.9554 26.3918 15.934 26.3208C15.9127 26.2498 15.9056 26.1752 15.913 26.1015C15.9205 26.0277 15.9424 25.9561 15.9775 25.8908C16.0126 25.8255 16.0603 25.7678 16.1177 25.7209C16.2337 25.6262 16.3826 25.5814 16.5316 25.5965C16.6054 25.604 16.6769 25.6259 16.7423 25.661C16.8076 25.6961 16.8653 25.7438 16.9122 25.8012C19.6116 29.3183 23.4607 27.3723 23.6214 27.2866L23.6713 27.2652C24.1852 27.0183 24.6072 26.6143 24.8762 26.1117C25.1451 25.6091 25.2471 25.0339 25.1674 24.4694C24.9746 22.3556 22.9965 21.745 22.9108 21.72L18.9831 20.5489C16.9979 19.9633 16.0017 18.71 16.0231 16.8211C16.0231 15.6678 16.5587 13.0077 21.1219 13.0077H21.254C22.3503 12.9782 23.4277 13.2968 24.3316 13.9178C25.2355 14.5388 25.9194 15.4302 26.285 16.4641C26.3069 16.5344 26.3146 16.6084 26.3075 16.6817C26.3004 16.755 26.2788 16.8262 26.2439 16.891C26.209 16.9559 26.1615 17.0131 26.1042 17.0593C26.0468 17.1056 25.9809 17.1399 25.9101 17.1604C25.7728 17.2018 25.6247 17.1876 25.4978 17.1208C25.3708 17.054 25.2753 16.94 25.2317 16.8033C25.1996 16.6926 24.4105 14.1753 21.2433 14.1396C18.5761 14.1003 17.1443 15.0537 17.1264 16.864C17.1264 18.2387 17.8013 19.0849 19.2974 19.5277L23.225 20.6953C23.3321 20.7274 25.9994 21.5236 26.2636 24.4015C26.3613 25.1963 26.205 26.0016 25.8169 26.702C25.4288 27.4024 24.829 27.9621 24.1034 28.3006C23.1141 28.7607 22.038 29.0042 20.947 29.0148Z" fill="white" stroke="white" stroke-width="2" stroke-miterlimit="10"/>
<path d="M21.2472 14.1219C21.1748 14.1224 21.1031 14.1085 21.0362 14.081C20.9692 14.0535 20.9084 14.013 20.8573 13.9619C20.8061 13.9107 20.7656 13.8499 20.7382 13.783C20.7107 13.7161 20.6968 13.6444 20.6973 13.572V10.4727C20.6973 10.4005 20.7115 10.329 20.7391 10.2623C20.7668 10.1956 20.8073 10.135 20.8583 10.0839C20.9094 10.0328 20.97 9.99234 21.0367 9.96471C21.1034 9.93707 21.1749 9.92285 21.2472 9.92285C21.3194 9.92285 21.3909 9.93707 21.4576 9.96471C21.5243 9.99234 21.5849 10.0328 21.636 10.0839C21.687 10.135 21.7275 10.1956 21.7552 10.2623C21.7828 10.329 21.797 10.4005 21.797 10.4727V13.572C21.7975 13.6444 21.7836 13.7161 21.7561 13.783C21.7287 13.8499 21.6882 13.9107 21.637 13.9619C21.5859 14.013 21.5251 14.0535 21.4581 14.081C21.3912 14.1085 21.3195 14.1224 21.2472 14.1219Z" fill="white" stroke="white" stroke-width="2" stroke-miterlimit="10"/>
<path d="M21.2471 32.3105C21.1013 32.3105 20.9614 32.2526 20.8583 32.1495C20.7552 32.0463 20.6973 31.9065 20.6973 31.7606V28.6578C20.6973 28.5856 20.7115 28.5141 20.7391 28.4474C20.7668 28.3806 20.8073 28.32 20.8583 28.269C20.9094 28.2179 20.97 28.1774 21.0367 28.1498C21.1034 28.1221 21.1749 28.1079 21.2471 28.1079C21.3193 28.1079 21.3909 28.1221 21.4576 28.1498C21.5243 28.1774 21.5849 28.2179 21.636 28.269C21.687 28.32 21.7275 28.3806 21.7552 28.4474C21.7828 28.5141 21.797 28.5856 21.797 28.6578V31.7606C21.797 31.8328 21.7828 31.9044 21.7552 31.9711C21.7275 32.0378 21.687 32.0984 21.636 32.1495C21.5849 32.2005 21.5243 32.241 21.4576 32.2687C21.3909 32.2963 21.3193 32.3105 21.2471 32.3105Z" fill="white" stroke="white" stroke-width="2" stroke-miterlimit="10"/>
</svg>
