<svg width="26" height="26" viewBox="0 0 26 26" fill="none" xmlns="http://www.w3.org/2000/svg">
<circle cx="13" cy="13" r="13" fill="white"/>
<path d="M5.74945 18.625C5.74945 18.625 8.87445 18 9.49945 16.125C9.49945 16.125 4.49945 14.25 5.74945 7.375C5.74945 7.375 8.24945 10.5 11.9994 11.125V9.87523C11.9995 9.15723 12.2468 8.46114 12.6997 7.904C13.1526 7.34686 13.7835 6.96264 14.4864 6.81594C15.1892 6.66924 15.9211 6.769 16.5591 7.09845C17.197 7.4279 17.7021 7.96695 17.9894 8.62497L20.7494 8.625L18.2494 11.125C18.2494 15.5 15.1244 19.875 9.49945 19.875C6.99945 19.875 5.74945 18.625 5.74945 18.625Z" stroke="black" stroke-width="1.5" stroke-linecap="round" stroke-linejoin="round"/>
</svg>
