<svg width="35" height="35" viewBox="0 0 35 35" fill="none" xmlns="http://www.w3.org/2000/svg">
<path d="M32.7759 17.4934C32.7767 20.5576 31.8925 23.5533 30.2351 26.1019C28.5776 28.6504 26.2213 30.6374 23.464 31.8117C20.7067 32.986 17.6721 33.2949 14.7438 32.6994C11.8154 32.1039 9.12484 30.6307 7.01201 28.4659C4.89918 26.3012 3.45897 23.5421 2.8734 20.5374C2.28782 17.5327 2.58318 14.4172 3.72213 11.5848C4.86107 8.75231 6.7925 6.33001 9.27228 4.624C11.7521 2.918 14.6689 2.00487 17.6541 2.00002C19.6385 1.9968 21.604 2.39514 23.4383 3.17226C25.2725 3.94938 26.9396 5.09004 28.344 6.529C29.7485 7.96796 30.8628 9.677 31.6233 11.5584C32.3837 13.4397 32.7754 15.4565 32.7759 17.4934V17.4934Z" stroke="white" stroke-width="4" stroke-linecap="round" stroke-linejoin="round"/>
</svg>
