<svg width="26" height="26" viewBox="0 0 26 26" fill="none" xmlns="http://www.w3.org/2000/svg">
<circle cx="13" cy="13" r="13" fill="white"/>
<path d="M15.5 13L11.75 10.5V15.5L15.5 13Z" stroke="black" stroke-width="1.5" stroke-linecap="round" stroke-linejoin="round"/>
<path d="M4.875 13C4.875 15.3246 5.11517 16.6886 5.29774 17.3896C5.34654 17.581 5.44026 17.7581 5.57114 17.9061C5.70201 18.0541 5.86627 18.1688 6.0503 18.2407C8.66569 19.2457 13 19.2181 13 19.2181C13 19.2181 17.3343 19.2457 19.9497 18.2407C20.1337 18.1688 20.298 18.0541 20.4288 17.9061C20.5597 17.7581 20.6534 17.581 20.7022 17.3896C20.8848 16.6886 21.125 15.3246 21.125 13C21.125 10.6753 20.8848 9.3114 20.7023 8.6104C20.6535 8.41894 20.5597 8.24188 20.4289 8.09386C20.298 7.94585 20.1337 7.83115 19.9497 7.75927C17.3343 6.75422 13 6.78181 13 6.78181C13 6.78181 8.66574 6.75422 6.05033 7.75926C5.86629 7.83114 5.70203 7.94584 5.57116 8.09385C5.44029 8.24186 5.34656 8.41893 5.29776 8.61038C5.11518 9.31138 4.875 10.6753 4.875 13Z" stroke="black" stroke-width="1.5" stroke-linecap="round" stroke-linejoin="round"/>
</svg>
