<svg width="54" height="41" viewBox="0 0 54 41" fill="none" xmlns="http://www.w3.org/2000/svg">
<g clip-path="url(#clip0_354_3764)">
<path d="M29.97 3.30108V1.80568H27.9883V0.239258H26.0102V1.79821H24.0248V3.2936H8.54117L0.236328 25.175C0.236328 29.478 4.68138 32.966 10.1488 32.966C15.6162 32.966 20.0613 29.478 20.0613 25.175L12.3861 4.98714H24.0248V6.48253H26.0102V36.0839H18.0795V39.2018H8.14852V40.7495H45.8315V39.1906H35.9301V36.0839H27.9883V6.47132H29.97V4.97592H41.6124L33.9372 25.1638C33.9372 29.4668 38.3823 32.9548 43.8497 32.9548C49.3171 32.9548 53.7622 29.4668 53.7622 25.1638L45.4536 3.30108H29.97ZM10.1488 31.4033C6.44459 31.4033 3.35157 29.4144 2.46997 26.7264H17.8276C16.946 29.4219 13.8345 31.4033 10.1488 31.4033ZM18.0351 25.175H2.25883L9.96729 4.98714H10.3377L18.0351 25.175ZM33.9372 37.6428V39.2018H20.0613V37.6428H33.9372ZM27.9883 4.91611H26.0102V3.36463H27.9883V4.91611ZM43.8497 31.4033C40.164 31.4033 37.0414 29.4219 36.1709 26.7339H51.5285C50.6469 29.4219 47.5354 31.4033 43.8497 31.4033ZM35.9634 25.175L43.6719 4.98714H44.0423L51.7508 25.175H35.9634Z" fill="white" stroke="white" stroke-width="1.28" stroke-miterlimit="10"/>
</g>
<defs>
<clipPath id="clip0_354_3764">
<rect width="54" height="41" fill="white"/>
</clipPath>
</defs>
</svg>
