<?xml version="1.0" encoding="utf-8"?>
<!-- Generator: Adobe Illustrator 23.1.0, SVG Export Plug-In . SVG Version: 6.00 Build 0)  -->
<svg version="1.1" id="Слой_1" xmlns="http://www.w3.org/2000/svg" xmlns:xlink="http://www.w3.org/1999/xlink" x="0px" y="0px"
	 viewBox="0 0 44 41" style="enable-background:new 0 0 44 41;" xml:space="preserve">
<style type="text/css">
	.st0{clip-path:url(#SVGID_2_);}
	.st1{fill:#858585;stroke:#858585;stroke-miterlimit:10;}
</style>
<g>
	<defs>
		<rect id="SVGID_1_" y="0" width="43.5" height="41"/>
	</defs>
	<clipPath id="SVGID_2_">
		<use xlink:href="#SVGID_1_"  style="overflow:visible;"/>
	</clipPath>
	<g class="st0">
		<path class="st1" d="M37.5,3.7l-1.1-1.1l1.1-1.1l-1.1-1.1L26.3,10.5l1.1,1.1l6.7-6.7L35.3,6l-7.7,7.7H0.3v27h35V15l7.9-7.9
			l-4.5-4.5L37.5,3.7z M33.6,39.1H1.9V15.3H26l-7.6,7.5l-2.2,6.7l6.7-2.2l10.7-10.7V39.1z M21.8,26.2L19.5,24L38.6,4.9l2.2,2.2
			L21.8,26.2z"/>
		<path class="st1" d="M14.6,26.4H5V28h9.5V26.4z"/>
		<path class="st1" d="M16.2,20.1H5v1.6h11.1V20.1z"/>
		<path class="st1" d="M30.5,32.8H5v1.6h25.4V32.8z"/>
	</g>
</g>
</svg>
