<?xml version="1.0" encoding="utf-8"?>
<!-- Generator: Adobe Illustrator 23.1.0, SVG Export Plug-In . SVG Version: 6.00 Build 0)  -->
<svg version="1.1" id="Слой_1" xmlns="http://www.w3.org/2000/svg" xmlns:xlink="http://www.w3.org/1999/xlink" x="0px" y="0px"
	 viewBox="0 0 41 41" style="enable-background:new 0 0 41 41;" xml:space="preserve">
<style type="text/css">
	.st0{clip-path:url(#SVGID_2_);}
	.st1{fill:#858585;stroke:#858585;stroke-width:0.91;stroke-miterlimit:10;}
</style>
<g>
	<defs>
		<rect id="SVGID_1_" y="0" width="41" height="41"/>
	</defs>
	<clipPath id="SVGID_2_">
		<use xlink:href="#SVGID_1_"  style="overflow:visible;"/>
	</clipPath>
	<g class="st0">
		<path class="st1" d="M35.2,10.2h-7.5c-0.2,0-0.4-0.1-0.5-0.2c-0.1-0.1-0.2-0.3-0.2-0.5c0-0.2,0.1-0.4,0.2-0.5
			c0.1-0.1,0.3-0.2,0.5-0.2h7.5c0.2,0,0.4,0.1,0.5,0.2c0.1,0.1,0.2,0.3,0.2,0.5c0,0.2-0.1,0.4-0.2,0.5
			C35.6,10.1,35.4,10.2,35.2,10.2z"/>
		<path class="st1" d="M35.2,29.9h-7.5c-0.2,0-0.4-0.1-0.5-0.2c-0.1-0.1-0.2-0.3-0.2-0.5c0-0.2,0.1-0.4,0.2-0.5
			c0.1-0.1,0.3-0.2,0.5-0.2h7.5c0.2,0,0.4,0.1,0.5,0.2c0.1,0.1,0.2,0.3,0.2,0.5c0,0.2-0.1,0.4-0.2,0.5
			C35.6,29.8,35.4,29.9,35.2,29.9z"/>
		<path class="st1" d="M35.2,34.2h-7.5c-0.1,0-0.2,0-0.3-0.1c-0.1,0-0.2-0.1-0.2-0.2c-0.1-0.1-0.1-0.2-0.2-0.2
			c0-0.1-0.1-0.2-0.1-0.3c0-0.1,0-0.2,0.1-0.3c0-0.1,0.1-0.2,0.2-0.2c0.1-0.1,0.2-0.1,0.2-0.2c0.1,0,0.2-0.1,0.3-0.1h7.5
			c0.1,0,0.2,0,0.3,0.1c0.1,0,0.2,0.1,0.2,0.2c0.1,0.1,0.1,0.2,0.2,0.2c0,0.1,0.1,0.2,0.1,0.3c0,0.1,0,0.2-0.1,0.3
			c0,0.1-0.1,0.2-0.2,0.2c-0.1,0.1-0.2,0.1-0.2,0.2C35.4,34.1,35.3,34.2,35.2,34.2z"/>
		<path class="st1" d="M13.3,10.2H5.8c-0.2,0-0.4-0.1-0.5-0.2C5.1,9.8,5.1,9.6,5.1,9.4c0-0.2,0.1-0.4,0.2-0.5
			c0.1-0.1,0.3-0.2,0.5-0.2h7.5c0.2,0,0.4,0.1,0.5,0.2c0.1,0.1,0.2,0.3,0.2,0.5c0,0.2-0.1,0.4-0.2,0.5
			C13.7,10.1,13.5,10.2,13.3,10.2z"/>
		<path class="st1" d="M9.6,14c-0.2,0-0.4-0.1-0.5-0.2c-0.1-0.1-0.2-0.3-0.2-0.5V5.7c0-0.2,0.1-0.4,0.2-0.5C9.2,5,9.4,4.9,9.6,4.9
			S10,5,10.1,5.2c0.1,0.1,0.2,0.3,0.2,0.5v7.5c0,0.1,0,0.2-0.1,0.3c0,0.1-0.1,0.2-0.2,0.2c-0.1,0.1-0.2,0.1-0.2,0.2
			C9.8,13.9,9.7,14,9.6,14z"/>
		<path class="st1" d="M12.2,34.7c-0.2,0-0.4-0.1-0.5-0.2l-5.3-5.3c-0.1-0.1-0.1-0.2-0.2-0.2c0-0.1-0.1-0.2-0.1-0.3
			c0-0.1,0-0.2,0.1-0.3c0-0.1,0.1-0.2,0.2-0.2C6.4,28,6.5,28,6.6,27.9c0.1,0,0.2-0.1,0.3-0.1c0.1,0,0.2,0,0.3,0.1
			c0.1,0,0.2,0.1,0.2,0.2l5.3,5.3c0.1,0.1,0.2,0.2,0.2,0.4c0,0.1,0,0.3,0,0.4c-0.1,0.1-0.2,0.3-0.3,0.3
			C12.5,34.7,12.4,34.7,12.2,34.7L12.2,34.7z"/>
		<path class="st1" d="M6.9,34.7c-0.2,0-0.4-0.1-0.5-0.2c-0.1-0.1-0.1-0.2-0.2-0.2c0-0.1-0.1-0.2-0.1-0.3c0-0.1,0-0.2,0.1-0.3
			c0-0.1,0.1-0.2,0.2-0.2l5.3-5.3c0.1-0.1,0.2-0.1,0.2-0.2c0.1,0,0.2-0.1,0.3-0.1c0.1,0,0.2,0,0.3,0.1c0.1,0,0.2,0.1,0.2,0.2
			s0.1,0.2,0.2,0.2c0,0.1,0.1,0.2,0.1,0.3c0,0.1,0,0.2-0.1,0.3c0,0.1-0.1,0.2-0.2,0.2l-5.3,5.3C7.3,34.6,7.1,34.7,6.9,34.7z"/>
		<path class="st1" d="M9.6,18c-1.7,0-3.4-0.5-4.8-1.4c-1.4-0.9-2.5-2.3-3.2-3.8c-0.6-1.6-0.8-3.3-0.5-5c0.3-1.7,1.1-3.2,2.3-4.4
			s2.7-2,4.4-2.3c1.7-0.3,3.4-0.2,5,0.5s2.9,1.7,3.8,3.2c0.9,1.4,1.4,3.1,1.4,4.8c0,2.3-0.9,4.4-2.5,6.1C14,17.1,11.8,18,9.6,18z
			 M9.6,2.4c-1.4,0-2.8,0.4-3.9,1.2C4.5,4.3,3.6,5.5,3,6.7C2.5,8,2.4,9.5,2.6,10.8c0.3,1.4,0.9,2.6,1.9,3.6s2.3,1.7,3.6,1.9
			c1.4,0.3,2.8,0.1,4.1-0.4c1.3-0.5,2.4-1.4,3.2-2.6s1.2-2.5,1.2-3.9c0-1.9-0.7-3.7-2.1-5S11.4,2.4,9.6,2.4z"/>
		<path class="st1" d="M31.4,18c-1.7,0-3.4-0.5-4.8-1.4c-1.4-0.9-2.5-2.3-3.2-3.8c-0.6-1.6-0.8-3.3-0.5-5s1.1-3.2,2.3-4.4
			c1.2-1.2,2.7-2,4.4-2.3c1.7-0.3,3.4-0.2,5,0.5c1.6,0.6,2.9,1.7,3.8,3.2C39.5,6.1,40,7.8,40,9.4c0,2.3-0.9,4.4-2.5,6.1
			C35.8,17.1,33.7,18,31.4,18z M31.4,2.4c-1.4,0-2.8,0.4-3.9,1.2c-1.2,0.8-2.1,1.9-2.6,3.2c-0.5,1.3-0.7,2.7-0.4,4.1
			c0.3,1.4,0.9,2.6,1.9,3.6c1,1,2.3,1.7,3.6,1.9c1.4,0.3,2.8,0.1,4.1-0.4c1.3-0.5,2.4-1.4,3.2-2.6s1.2-2.5,1.2-3.9
			c0-1.9-0.7-3.7-2.1-5S33.3,2.4,31.4,2.4z"/>
		<path class="st1" d="M31.4,39.8c-1.7,0-3.4-0.5-4.8-1.4c-1.4-0.9-2.5-2.3-3.2-3.8c-0.6-1.6-0.8-3.3-0.5-5c0.3-1.7,1.1-3.2,2.3-4.4
			c1.2-1.2,2.7-2,4.4-2.3c1.7-0.3,3.4-0.2,5,0.5c1.6,0.6,2.9,1.7,3.8,3.2c0.9,1.4,1.4,3.1,1.4,4.8c0,2.3-0.9,4.4-2.5,6.1
			C35.8,38.9,33.7,39.8,31.4,39.8z M31.4,24.2c-1.4,0-2.8,0.4-3.9,1.2c-1.2,0.8-2.1,1.9-2.6,3.2c-0.5,1.3-0.7,2.7-0.4,4.1
			c0.3,1.4,0.9,2.6,1.9,3.6c1,1,2.3,1.7,3.6,1.9c1.4,0.3,2.8,0.1,4.1-0.4c1.3-0.5,2.4-1.4,3.2-2.6c0.8-1.2,1.2-2.5,1.2-3.9
			c0-1.9-0.7-3.7-2.1-5C35.1,25,33.3,24.2,31.4,24.2L31.4,24.2z"/>
		<path class="st1" d="M9.6,39.8c-1.7,0-3.4-0.5-4.8-1.4c-1.4-0.9-2.5-2.3-3.2-3.8c-0.6-1.6-0.8-3.3-0.5-5c0.3-1.7,1.1-3.2,2.3-4.4
			s2.7-2,4.4-2.3c1.7-0.3,3.4-0.2,5,0.5s2.9,1.7,3.8,3.2c0.9,1.4,1.4,3.1,1.4,4.8c0,2.3-0.9,4.4-2.5,6.1C14,38.9,11.8,39.8,9.6,39.8
			z M9.6,24.2c-1.4,0-2.8,0.4-3.9,1.2S3.6,27.3,3,28.6c-0.5,1.3-0.7,2.7-0.4,4.1c0.3,1.4,0.9,2.6,1.9,3.6c1,1,2.3,1.7,3.6,1.9
			c1.4,0.3,2.8,0.1,4.1-0.4c1.3-0.5,2.4-1.4,3.2-2.6c0.8-1.2,1.2-2.5,1.2-3.9c0-1.9-0.7-3.7-2.1-5C13.2,25,11.4,24.2,9.6,24.2
			L9.6,24.2z"/>
	</g>
</g>
</svg>
