<?xml version="1.0" encoding="utf-8"?>
<!-- Generator: Adobe Illustrator 23.1.0, SVG Export Plug-In . SVG Version: 6.00 Build 0)  -->
<svg version="1.1" id="Слой_1" xmlns="http://www.w3.org/2000/svg" xmlns:xlink="http://www.w3.org/1999/xlink" x="0px" y="0px"
	 viewBox="0 0 48 42" style="enable-background:new 0 0 48 42;" xml:space="preserve">
<style type="text/css">
	.st0{fill:#858585;stroke:#858585;stroke-width:1.33;stroke-miterlimit:10;}
</style>
<path class="st0" d="M1.9,27.6c-0.2,0-0.4-0.1-0.6-0.2c-0.2-0.1-0.3-0.3-0.3-0.5c-0.1-0.2,0-0.4,0-0.6c0.1-0.2,0.2-0.4,0.4-0.5
	l11.4-7c0.1-0.1,0.3-0.1,0.5-0.1s0.3,0,0.5,0.1l7.1,4.2L41.3,4.8c0.2-0.2,0.4-0.3,0.7-0.2c0.2,0,0.5,0.1,0.6,0.3
	c0.2,0.2,0.3,0.4,0.2,0.7c0,0.2-0.1,0.5-0.3,0.6L21.7,25c-0.1,0.1-0.3,0.2-0.5,0.2c-0.2,0-0.4,0-0.6-0.1l-7.3-4.3L2.4,27.5
	C2.3,27.5,2.1,27.6,1.9,27.6z"/>
<path class="st0" d="M44,9.9L46.9,1l-9.1,1.9L44,9.9z"/>
<path class="st0" d="M13.4,41.3H7.7c-0.2,0-0.5-0.1-0.7-0.3c-0.2-0.2-0.3-0.4-0.3-0.7v-5.9c0-0.2,0-0.3,0.1-0.5s0.2-0.3,0.3-0.3
	l5.6-3.4c0.1-0.1,0.3-0.1,0.5-0.1c0.2,0,0.3,0,0.5,0.1l0.1,0.1c0.1,0.1,0.2,0.2,0.3,0.3c0.1,0.1,0.1,0.3,0.1,0.5v9.3
	c0,0.1,0,0.2-0.1,0.4s-0.1,0.2-0.2,0.3s-0.2,0.2-0.3,0.2C13.7,41.3,13.5,41.3,13.4,41.3z M8.6,39.5h3.9v-6.8L8.6,35L8.6,39.5z"/>
<path class="st0" d="M7.7,41.3H1.9c-0.2,0-0.5-0.1-0.7-0.3C1.1,40.9,1,40.6,1,40.4V38c0-0.2,0-0.3,0.1-0.5c0.1-0.1,0.2-0.3,0.3-0.3
	l5.7-3.4c0.1-0.1,0.3-0.1,0.5-0.1s0.3,0,0.5,0.1c0.1,0.1,0.3,0.2,0.3,0.3c0.1,0.1,0.1,0.3,0.1,0.5v5.9c0,0.1,0,0.2-0.1,0.4
	c0,0.1-0.1,0.2-0.2,0.3c-0.1,0.1-0.2,0.2-0.3,0.2C7.9,41.3,7.8,41.3,7.7,41.3z M2.9,39.5h3.9v-3.3l-3.8,2.3L2.9,39.5z"/>
<path class="st0" d="M19.1,41.3h-5.7c-0.2,0-0.5-0.1-0.7-0.3c-0.2-0.2-0.3-0.4-0.3-0.7v-9.3c0-0.2,0-0.3,0.1-0.5
	c0.1-0.1,0.2-0.3,0.3-0.3c0.1-0.1,0.3-0.1,0.5-0.1c0.2,0,0.3,0,0.5,0.1l5.7,3.4c0.1,0.1,0.3,0.2,0.3,0.3c0.1,0.1,0.1,0.3,0.1,0.5
	v5.8c0,0.2-0.1,0.5-0.3,0.7C19.6,41.2,19.4,41.3,19.1,41.3z M14.3,39.5h3.8v-4.4l-3.8-2.3V39.5z"/>
<path class="st0" d="M24.9,41.3h-5.7c-0.2,0-0.5-0.1-0.7-0.3c-0.2-0.2-0.3-0.4-0.3-0.7v-5.8c0-0.2,0-0.3,0.1-0.5
	c0.1-0.1,0.2-0.3,0.3-0.3c0.1-0.1,0.3-0.1,0.5-0.1c0.2,0,0.3,0,0.5,0.1l1.3,0.8l3.3-3c0.1-0.1,0.3-0.2,0.5-0.2c0.2,0,0.4,0,0.5,0.1
	c0.2,0.1,0.3,0.2,0.4,0.3c0.1,0.2,0.2,0.3,0.2,0.5v8.2c0,0.2-0.1,0.5-0.3,0.7C25.4,41.2,25.1,41.3,24.9,41.3z M20.1,39.5h3.9v-5.2
	l-2.3,2.1c-0.1,0.1-0.3,0.2-0.5,0.2c-0.2,0-0.4,0-0.6-0.1l-0.5-0.3V39.5z"/>
<path class="st0" d="M30.6,41.3h-5.7c-0.2,0-0.5-0.1-0.7-0.3C24,40.9,24,40.6,24,40.4v-8.2c0-0.1,0-0.3,0.1-0.4
	c0.1-0.1,0.1-0.2,0.2-0.3l5.7-5.2c0.1-0.1,0.3-0.2,0.5-0.2c0.2,0,0.4,0,0.5,0.1c0.2,0.1,0.3,0.2,0.4,0.3c0.1,0.2,0.2,0.3,0.1,0.5
	v13.4c0,0.2-0.1,0.5-0.3,0.7C31.1,41.2,30.9,41.3,30.6,41.3z M25.8,39.5h3.8V29.1l-3.8,3.5V39.5z"/>
<path class="st0" d="M36.4,41.3h-5.7c-0.1,0-0.2,0-0.4-0.1c-0.1,0-0.2-0.1-0.3-0.2c-0.1-0.1-0.2-0.2-0.2-0.3c0-0.1-0.1-0.2-0.1-0.4
	V27c0-0.1,0-0.3,0.1-0.4c0.1-0.1,0.1-0.2,0.2-0.3l5.7-5.2c0.1-0.1,0.3-0.2,0.5-0.2c0.2,0,0.4,0,0.5,0.1c0.2,0.1,0.3,0.2,0.4,0.3
	c0.1,0.2,0.2,0.3,0.2,0.5v18.5c0,0.2-0.1,0.5-0.3,0.7C36.8,41.2,36.6,41.3,36.4,41.3z M31.6,39.5h3.9V24l-3.9,3.5V39.5z"/>
<path class="st0" d="M42.1,41.3h-5.7c-0.2,0-0.5-0.1-0.7-0.3c-0.2-0.2-0.3-0.4-0.3-0.7V21.9c0-0.1,0-0.3,0.1-0.4
	c0.1-0.1,0.1-0.2,0.2-0.3l5.7-5.2c0.1-0.1,0.3-0.2,0.5-0.2c0.2,0,0.4,0,0.5,0.1c0.2,0.1,0.3,0.2,0.4,0.3c0.1,0.2,0.2,0.3,0.2,0.5
	v23.7c0,0.2-0.1,0.5-0.3,0.7C42.6,41.2,42.3,41.3,42.1,41.3z M37.3,39.5h3.8V18.8l-3.8,3.5V39.5z"/>
</svg>
