<?xml version="1.0" encoding="utf-8"?>
<!-- Generator: Adobe Illustrator 23.1.0, SVG Export Plug-In . SVG Version: 6.00 Build 0)  -->
<svg version="1.1" id="Слой_1" xmlns="http://www.w3.org/2000/svg" xmlns:xlink="http://www.w3.org/1999/xlink" x="0px" y="0px"
	 viewBox="0 0 45.4 46" style="enable-background:new 0 0 45.4 46;" xml:space="preserve">
<style type="text/css">
	.st0{fill:none;stroke:#858585;stroke-width:3;stroke-linecap:round;stroke-linejoin:round;}
</style>
<path class="st0" d="M43.3,23.1c0,4.2-1.2,8.3-3.5,11.8c-2.3,3.5-5.5,6.2-9.3,7.8c-3.8,1.6-7.9,2-11.9,1.2S10.9,41,8.1,38
	c-2.9-3-4.9-6.7-5.6-10.8C1.6,23.1,2,18.8,3.6,15c1.6-3.9,4.2-7.2,7.6-9.5c3.4-2.3,7.4-3.6,11.5-3.6c2.7,0,5.4,0.5,7.9,1.6
	c2.5,1.1,4.8,2.6,6.7,4.6c1.9,2,3.4,4.3,4.5,6.9C42.7,17.5,43.3,20.3,43.3,23.1L43.3,23.1z"/>
<path class="st0" d="M38.7,9.7c-4.2,1.3-9.8,2.1-16,2.1s-11.8-0.8-16-2.1"/>
<path class="st0" d="M2,23.1h41.3"/>
<path class="st0" d="M6.6,35.7c4.2-1.3,9.8-2.1,16-2.1s11.8,0.8,16,2.1"/>
<path class="st0" d="M22.6,1.9v42.3"/>
</svg>
