<?xml version="1.0" encoding="utf-8"?>
<!-- Generator: Adobe Illustrator 23.1.0, SVG Export Plug-In . SVG Version: 6.00 Build 0)  -->
<svg version="1.1" id="Слой_1" xmlns="http://www.w3.org/2000/svg" xmlns:xlink="http://www.w3.org/1999/xlink" x="0px" y="0px"
	 viewBox="0 0 68 42" style="enable-background:new 0 0 68 42;" xml:space="preserve">
<style type="text/css">
	.st0{fill:#858585;stroke:#858585;stroke-width:1.5;stroke-miterlimit:10;}
</style>
<path class="st0" d="M54.4,35.3c-2.1,0-4.2-0.2-6.3-0.5c-0.2,0-0.3-0.1-0.5-0.3c-0.1-0.1-0.2-0.3-0.2-0.5v-5.5
	c0.1-2.7-0.9-5.3-2.8-7.3c-0.6-0.6-1.2-1.1-1.9-1.6c-0.1-0.1-0.2-0.1-0.2-0.2c-0.1-0.1-0.1-0.2-0.1-0.3c0-0.1,0-0.2,0-0.3
	c0-0.1,0.1-0.2,0.1-0.3c1.3-1.7,3.2-2.9,5.3-3.5c-1.1-1.1-1.9-2.6-2.2-4.1c-0.3-1.6-0.1-3.2,0.5-4.6c0.6-1.5,1.6-2.7,3-3.6
	c1.3-0.9,2.9-1.3,4.4-1.3s3.1,0.5,4.4,1.3c1.3,0.9,2.3,2.1,3,3.6c0.6,1.5,0.8,3.1,0.5,4.6c-0.3,1.6-1.1,3-2.2,4.1
	c2.1,0.6,4,1.9,5.3,3.6c1.3,1.8,2.1,3.9,2.1,6.1v7.5c0,0.2-0.1,0.4-0.2,0.5c-0.1,0.1-0.3,0.2-0.4,0.3l-0.4,0.2
	C65.3,33.4,61.3,35.3,54.4,35.3z M49.1,33.4c1.8,0.3,3.6,0.4,5.4,0.4c6.5,0,10.3-1.8,10.7-2l0.1,0v-7c0-2.1-0.8-4.2-2.2-5.7
	c-1.4-1.6-3.4-2.5-5.5-2.7c-0.2,0-0.3-0.1-0.4-0.2c-0.1-0.1-0.2-0.2-0.3-0.4c0-0.2,0-0.3,0-0.5c0.1-0.2,0.2-0.3,0.3-0.4
	c1.2-0.8,2.1-1.9,2.6-3.2c0.5-1.3,0.5-2.7,0.1-4.1c-0.4-1.3-1.2-2.5-2.3-3.4S55,2.9,53.6,2.9s-2.8,0.5-3.9,1.3s-1.9,2-2.3,3.4
	c-0.4,1.3-0.3,2.8,0.1,4.1c0.5,1.3,1.4,2.4,2.6,3.2c0.1,0.1,0.2,0.2,0.3,0.4c0.1,0.2,0.1,0.3,0,0.5c0,0.2-0.1,0.3-0.3,0.4
	c-0.1,0.1-0.3,0.2-0.4,0.2c-2,0.2-3.9,1.1-5.4,2.6c0.5,0.4,1,0.8,1.5,1.3c2.1,2.3,3.2,5.3,3.2,8.4L49.1,33.4z"/>
<path class="st0" d="M13.3,35.3c-6.9,0-10.9-1.9-11.4-2.2L1.5,33c-0.2-0.1-0.3-0.2-0.4-0.3C1.1,32.6,1,32.4,1,32.2v-7.5
	c0-2.2,0.7-4.3,2.1-6.1c1.3-1.8,3.2-3,5.3-3.6c-1.1-1.1-1.9-2.6-2.2-4.1C5.9,9.3,6.1,7.7,6.7,6.3s1.6-2.7,3-3.6
	c1.3-0.9,2.9-1.3,4.4-1.3s3.1,0.5,4.4,1.3c1.3,0.9,2.3,2.1,3,3.6c0.6,1.5,0.8,3.1,0.5,4.6c-0.3,1.6-1.1,3-2.2,4.1
	c2.1,0.6,3.9,1.8,5.2,3.5c0.1,0.1,0.1,0.2,0.1,0.3c0,0.1,0,0.2,0,0.3c0,0.1-0.1,0.2-0.1,0.3s-0.1,0.2-0.2,0.2c-0.7,0.5-1.4,1-2,1.7
	c-1.8,2-2.8,4.6-2.7,7.3v5.5c0,0.2-0.1,0.4-0.2,0.5c-0.1,0.1-0.3,0.2-0.5,0.3C17.5,35.2,15.4,35.3,13.3,35.3z M2.6,31.7l0.1,0.1
	c0.2,0.1,4,2,10.7,2c1.8,0,3.6-0.1,5.4-0.4v-4.8c-0.1-3.1,1.1-6.1,3.1-8.3c0.5-0.5,1-1,1.5-1.4c-1.4-1.5-3.3-2.4-5.4-2.6
	c-0.2,0-0.3-0.1-0.4-0.2c-0.1-0.1-0.2-0.2-0.3-0.4c0-0.2,0-0.3,0-0.5c0.1-0.2,0.2-0.3,0.3-0.4c1.2-0.8,2.1-1.9,2.6-3.2
	c0.5-1.3,0.5-2.7,0.1-4.1c-0.4-1.3-1.2-2.5-2.3-3.4c-1.1-0.8-2.5-1.3-3.9-1.3s-2.8,0.5-3.9,1.3c-1.1,0.8-1.9,2-2.3,3.4
	c-0.4,1.3-0.3,2.8,0.1,4.1s1.4,2.4,2.6,3.2c0.1,0.1,0.2,0.2,0.3,0.4c0.1,0.2,0.1,0.3,0,0.5c0,0.2-0.1,0.3-0.3,0.4
	c-0.1,0.1-0.3,0.2-0.4,0.2c-2.1,0.2-4.1,1.2-5.5,2.7c-1.4,1.6-2.2,3.6-2.2,5.7V31.7z"/>
<path class="st0" d="M34.8,40.4c-5.1,0-10.1-0.9-14.9-2.4l-0.6-0.2c-0.1,0-0.3-0.1-0.4-0.2s-0.2-0.2-0.2-0.4l0-0.1c0,0,0-0.1,0-0.1
	v-8.8c0-2.6,0.9-5.1,2.5-7.1c1.6-2,3.8-3.5,6.3-4.1c-1.3-1.3-2.2-2.9-2.6-4.7c-0.4-1.8-0.2-3.7,0.5-5.4c0.7-1.7,1.9-3.2,3.4-4.2
	C30.2,1.5,32,1,33.9,1c1.8,0,3.6,0.5,5.2,1.6c1.5,1,2.7,2.5,3.4,4.2c0.7,1.7,0.9,3.6,0.5,5.4c-0.4,1.8-1.3,3.4-2.6,4.7
	c2.5,0.6,4.7,2.1,6.3,4.1c1.6,2,2.5,4.5,2.5,7.1v8.8c0,0.2-0.1,0.4-0.2,0.5c-0.1,0.1-0.3,0.2-0.4,0.3L48,37.9
	C47.5,38.1,42.8,40.4,34.8,40.4z M20.3,36.5L20.3,36.5c4.8,1.5,9.6,2.3,14.5,2.4c7.6,0,12-2.1,12.5-2.3l0.2-0.1v-8.3
	c0-2.5-1-4.9-2.6-6.7c-1.7-1.8-4-3-6.5-3.2c-0.2,0-0.3-0.1-0.4-0.2s-0.2-0.2-0.3-0.4c0-0.2,0-0.3,0-0.5c0.1-0.2,0.2-0.3,0.3-0.4
	c1.4-0.9,2.5-2.2,3-3.8c0.6-1.6,0.6-3.2,0.2-4.8c-0.5-1.6-1.4-3-2.8-4s-2.9-1.5-4.6-1.5c-1.7,0-3.3,0.5-4.6,1.5s-2.3,2.4-2.8,4
	c-0.5,1.6-0.4,3.3,0.2,4.8c0.6,1.6,1.6,2.9,3,3.8c0.1,0.1,0.2,0.2,0.3,0.4c0.1,0.2,0.1,0.3,0,0.5c0,0.2-0.1,0.3-0.3,0.4
	s-0.3,0.2-0.4,0.2c-2.5,0.2-4.8,1.4-6.5,3.2c-1.7,1.8-2.6,4.2-2.6,6.7V36.5z"/>
</svg>
