<?xml version="1.0" encoding="utf-8"?>
<!-- Generator: Adobe Illustrator 23.1.0, SVG Export Plug-In . SVG Version: 6.00 Build 0)  -->
<svg version="1.1" id="Слой_1" xmlns="http://www.w3.org/2000/svg" xmlns:xlink="http://www.w3.org/1999/xlink" x="0px" y="0px"
	 viewBox="0 0 56 43" style="enable-background:new 0 0 56 43;" xml:space="preserve">
<style type="text/css">
	.st0{fill:#858585;stroke:#858585;stroke-width:1.28;stroke-miterlimit:10;}
</style>
<path class="st0" d="M31,4.3V2.8h-2V1.2h-2v1.6h-2v1.5H9.5L1.2,26.2c0,4.3,4.4,7.8,9.9,7.8c5.5,0,9.9-3.5,9.9-7.8L13.4,6H25v1.5h2
	v29.6h-7.9v3.1H9.1v1.5h37.7v-1.6h-9.9v-3.1H29V7.5h2V6h11.6l-7.7,20.2c0,4.3,4.4,7.8,9.9,7.8s9.9-3.5,9.9-7.8L46.5,4.3H31z
	 M11.1,32.4c-3.7,0-6.8-2-7.7-4.7h15.4C17.9,30.4,14.8,32.4,11.1,32.4z M19,26.2H3.3L11,6h0.4L19,26.2z M34.9,38.6v1.6H21.1v-1.6
	H34.9z M29,5.9h-2V4.4h2V5.9z M44.8,32.4c-3.7,0-6.8-2-7.7-4.7h15.4C51.6,30.4,48.5,32.4,44.8,32.4z M37,26.2L44.7,6H45l7.7,20.2H37
	z"/>
</svg>
