<?xml version="1.0" encoding="utf-8"?>
<!-- Generator: Adobe Illustrator 23.1.0, SVG Export Plug-In . SVG Version: 6.00 Build 0)  -->
<svg version="1.1" id="Слой_1" xmlns="http://www.w3.org/2000/svg" xmlns:xlink="http://www.w3.org/1999/xlink" x="0px" y="0px"
	 viewBox="0 0 43 43" style="enable-background:new 0 0 43 43;" xml:space="preserve">
<style type="text/css">
	.st0{fill:#858585;stroke:#858585;stroke-width:2;stroke-miterlimit:10;}
</style>
<path class="st0" d="M22.7,41.6h-2.3c-0.8,0-1.5-0.3-2.1-0.8c-0.5-0.5-0.9-1.3-0.9-2.1v-2.1c-1.3-0.4-2.6-0.9-3.8-1.6l-1.5,1.5
	c-0.5,0.5-1.3,0.8-2.1,0.8c-0.8,0-1.5-0.3-2.1-0.8l-1.6-1.6c-0.5-0.5-0.8-1.3-0.8-2.1c0-0.8,0.3-1.5,0.8-2.1l1.5-1.5
	c-0.7-1.2-1.2-2.5-1.6-3.8H4.3c-0.8,0-1.5-0.3-2.1-0.9c-0.5-0.5-0.9-1.3-0.9-2.1v-2.3c0-0.8,0.3-1.5,0.9-2.1
	c0.5-0.5,1.3-0.9,2.1-0.9h2.1c0.4-1.3,0.9-2.6,1.6-3.8l-1.5-1.5c-0.5-0.5-0.8-1.3-0.8-2.1c0-0.8,0.3-1.5,0.8-2.1l1.6-1.6
	C8.4,6.2,8.7,6,9,5.8c0.4-0.1,0.7-0.2,1.1-0.2c0.4,0,0.8,0.1,1.1,0.2c0.4,0.1,0.7,0.4,0.9,0.6l1.5,1.5c1.2-0.7,2.5-1.2,3.8-1.6V4.3
	c0-0.8,0.3-1.5,0.9-2.1c0.5-0.5,1.3-0.8,2.1-0.8h2.3c0.8,0,1.5,0.3,2.1,0.8c0.5,0.5,0.9,1.3,0.9,2.1v2.1c1.3,0.4,2.6,0.9,3.8,1.6
	l1.5-1.5c0.5-0.5,1.3-0.8,2.1-0.8s1.5,0.3,2.1,0.8l1.6,1.6c0.5,0.5,0.8,1.3,0.8,2.1c0,0.8-0.3,1.5-0.8,2.1l-1.5,1.5
	c0.7,1.2,1.2,2.5,1.6,3.8h2.1c0.8,0,1.5,0.3,2.1,0.9c0.5,0.5,0.9,1.3,0.9,2.1v2.3c0,0.8-0.3,1.5-0.9,2.1c-0.5,0.5-1.3,0.9-2.1,0.9
	h-2.1c-0.4,1.3-0.9,2.6-1.6,3.8l1.5,1.5c0.5,0.5,0.8,1.3,0.8,2.1c0,0.8-0.3,1.5-0.8,2.1l-1.6,1.6c-0.5,0.5-1.3,0.8-2.1,0.8
	s-1.5-0.3-2.1-0.8l-1.5-1.5c-1.2,0.7-2.5,1.2-3.8,1.6v2.1c0,0.8-0.3,1.5-0.9,2.1C24.2,41.3,23.4,41.6,22.7,41.6z M13.9,33.9
	c1.3,0.8,2.8,1.4,4.3,1.8c0.1,0,0.2,0.1,0.3,0.2c0.1,0.1,0.1,0.2,0.1,0.3v2.5c0,0.5,0.2,0.9,0.5,1.3c0.3,0.3,0.8,0.5,1.3,0.5h2.3
	c0.5,0,0.9-0.2,1.3-0.5s0.5-0.8,0.5-1.3v-2.5c0-0.1,0-0.2,0.1-0.3c0.1-0.1,0.2-0.2,0.3-0.2c1.5-0.4,2.9-1,4.3-1.8l0,0
	c0.1-0.1,0.2-0.1,0.4,0c0.1,0,0.2,0.1,0.3,0.2l1.7,1.7c0.2,0.2,0.4,0.3,0.6,0.4c0.2,0.1,0.5,0.1,0.7,0.1c0.2,0,0.5,0,0.7-0.1
	c0.2-0.1,0.4-0.2,0.6-0.4l1.6-1.6c0.3-0.3,0.5-0.8,0.5-1.3c0-0.5-0.2-0.9-0.5-1.3L34,29.9c-0.1-0.1-0.1-0.1-0.1-0.2
	s-0.1-0.2-0.1-0.2c0-0.1,0-0.2,0.1-0.3c0.8-1.3,1.4-2.7,1.8-4.2c0-0.1,0.1-0.2,0.2-0.3c0.1-0.1,0.2-0.1,0.3-0.1h2.5
	c0.5,0,0.9-0.2,1.3-0.5c0.3-0.3,0.5-0.8,0.5-1.3v-2.3c0-0.5-0.2-0.9-0.5-1.3c-0.3-0.3-0.8-0.5-1.3-0.5h-2.5c-0.1,0-0.2,0-0.3-0.1
	c-0.1-0.1-0.2-0.2-0.2-0.3c-0.4-1.5-0.9-2.9-1.8-4.3c-0.1-0.1-0.1-0.2-0.1-0.4s0.1-0.2,0.2-0.3l1.8-1.8c0.2-0.2,0.3-0.4,0.4-0.6
	c0.1-0.2,0.1-0.5,0.1-0.7c0-0.2,0-0.5-0.1-0.7c-0.1-0.2-0.2-0.4-0.4-0.6l-1.6-1.6c-0.3-0.3-0.8-0.5-1.3-0.5c-0.5,0-0.9,0.2-1.3,0.5
	L29.8,9c-0.1,0.1-0.2,0.1-0.3,0.2c-0.1,0-0.2,0-0.4-0.1c-1.3-0.8-2.8-1.4-4.3-1.8c-0.1,0-0.2-0.1-0.3-0.2c-0.1-0.1-0.1-0.2-0.1-0.3
	V4.3c0-0.5-0.2-0.9-0.5-1.3c-0.3-0.3-0.8-0.5-1.3-0.5h-2.3c-0.5,0-0.9,0.2-1.3,0.5s-0.5,0.8-0.5,1.3v2.5c0,0.1,0,0.2-0.1,0.3
	c-0.1,0.1-0.2,0.2-0.3,0.2c-1.5,0.4-2.9,1-4.3,1.8c-0.1,0.1-0.2,0.1-0.4,0.1c-0.1,0-0.2-0.1-0.3-0.2l-1.8-1.8
	c-0.3-0.3-0.8-0.5-1.3-0.5c-0.5,0-0.9,0.2-1.3,0.5L7.2,8.9C7.1,9.1,6.9,9.3,6.9,9.5c-0.1,0.2-0.1,0.5-0.1,0.7c0,0.2,0,0.5,0.1,0.7
	c0.1,0.2,0.2,0.4,0.4,0.6L9,13.2c0.1,0.1,0.1,0.2,0.2,0.3c0,0.1,0,0.2-0.1,0.4c-0.8,1.3-1.4,2.8-1.8,4.3c0,0.1-0.1,0.2-0.2,0.3
	c-0.1,0.1-0.2,0.1-0.3,0.1H4.3c-0.5,0-0.9,0.2-1.3,0.5c-0.3,0.3-0.5,0.8-0.5,1.3v2.3c0,0.2,0,0.5,0.1,0.7c0.1,0.2,0.2,0.4,0.4,0.6
	c0.2,0.2,0.4,0.3,0.6,0.4c0.2,0.1,0.5,0.1,0.7,0.1h2.5c0.1,0,0.2,0,0.3,0.1c0.1,0.1,0.2,0.2,0.2,0.3c0.4,1.5,1,2.9,1.8,4.2
	c0,0,0,0,0,0c0.1,0.1,0.1,0.2,0.1,0.4c0,0.1-0.1,0.2-0.2,0.3l-1.7,1.7c-0.3,0.3-0.5,0.8-0.5,1.3c0,0.5,0.2,0.9,0.5,1.3l1.6,1.6
	c0.2,0.2,0.4,0.3,0.6,0.4c0.2,0.1,0.5,0.1,0.7,0.1c0.2,0,0.5,0,0.7-0.1c0.2-0.1,0.4-0.2,0.6-0.4l1.7-1.7c0.1-0.1,0.2-0.2,0.3-0.2
	C13.6,33.8,13.7,33.8,13.9,33.9L13.9,33.9L13.9,33.9z"/>
<path class="st0" d="M21.3,29c-1,0-1.9-0.2-2.8-0.6c-0.9-0.4-1.6-1.1-2.1-1.8c0-0.1-0.1-0.1-0.1-0.2c0-0.1,0-0.1,0-0.2
	c0-0.1,0-0.1,0.1-0.2c0-0.1,0.1-0.1,0.1-0.2c0.1-0.1,0.3-0.1,0.4-0.1c0.1,0,0.1,0,0.2,0.1c0.1,0,0.1,0.1,0.2,0.1
	c2.7,3.5,6.5,1.6,6.7,1.5l0,0c0.5-0.2,0.9-0.7,1.2-1.2c0.3-0.5,0.4-1.1,0.3-1.6c-0.2-2.1-2.2-2.7-2.3-2.7l-3.9-1.2
	c-2-0.6-3-1.8-3-3.7c0-1.2,0.5-3.8,5.1-3.8h0.1c1.1,0,2.2,0.3,3.1,0.9s1.6,1.5,2,2.5c0,0.1,0,0.1,0,0.2c0,0.1,0,0.1-0.1,0.2
	c0,0.1-0.1,0.1-0.1,0.2c-0.1,0-0.1,0.1-0.2,0.1c-0.1,0-0.3,0-0.4,0c-0.1-0.1-0.2-0.2-0.3-0.3c0-0.1-0.8-2.6-4-2.7
	c-2.7,0-4.1,0.9-4.1,2.7c0,1.4,0.7,2.2,2.2,2.7l3.9,1.2c0.1,0,2.8,0.8,3,3.7c0.1,0.8-0.1,1.6-0.4,2.3s-1,1.3-1.7,1.6
	C23.5,28.8,22.4,29,21.3,29z"/>
<path class="st0" d="M21.5,14.1c-0.1,0-0.1,0-0.2,0c-0.1,0-0.1-0.1-0.2-0.1c-0.1-0.1-0.1-0.1-0.1-0.2c0-0.1,0-0.1,0-0.2v-3.1
	c0-0.1,0-0.1,0-0.2c0-0.1,0.1-0.1,0.1-0.2c0.1-0.1,0.1-0.1,0.2-0.1c0.1,0,0.1,0,0.2,0c0.1,0,0.1,0,0.2,0c0.1,0,0.1,0.1,0.2,0.1
	c0.1,0.1,0.1,0.1,0.1,0.2c0,0.1,0,0.1,0,0.2v3.1c0,0.1,0,0.1,0,0.2c0,0.1-0.1,0.1-0.1,0.2c-0.1,0.1-0.1,0.1-0.2,0.1
	C21.6,14.1,21.6,14.1,21.5,14.1z"/>
<path class="st0" d="M21.5,32.3c-0.1,0-0.3-0.1-0.4-0.2C21,32,21,31.9,21,31.8v-3.1c0-0.1,0-0.1,0-0.2c0-0.1,0.1-0.1,0.1-0.2
	c0.1-0.1,0.1-0.1,0.2-0.1c0.1,0,0.1,0,0.2,0c0.1,0,0.1,0,0.2,0c0.1,0,0.1,0.1,0.2,0.1c0.1,0.1,0.1,0.1,0.1,0.2c0,0.1,0,0.1,0,0.2
	v3.1c0,0.1,0,0.1,0,0.2c0,0.1-0.1,0.1-0.1,0.2c-0.1,0.1-0.1,0.1-0.2,0.1C21.6,32.3,21.6,32.3,21.5,32.3z"/>
</svg>
