<?xml version="1.0" encoding="utf-8"?>
<!-- Generator: Adobe Illustrator 23.1.0, SVG Export Plug-In . SVG Version: 6.00 Build 0)  -->
<svg version="1.1" id="Слой_1" xmlns="http://www.w3.org/2000/svg" xmlns:xlink="http://www.w3.org/1999/xlink" x="0px" y="0px"
	 viewBox="0 0 42 43" style="enable-background:new 0 0 42 43;" xml:space="preserve">
<style type="text/css">
	.st0{fill:none;stroke:#858585;stroke-width:4;stroke-linecap:round;stroke-linejoin:round;}
</style>
<path class="st0" d="M39.8,18.5c0,3.1-0.9,6.1-2.5,8.6c-1.7,2.5-4,4.5-6.8,5.7c-2.8,1.2-5.8,1.5-8.7,0.9c-2.9-0.6-5.6-2.1-7.7-4.2
	c-2.1-2.2-3.6-4.9-4.1-7.9c-0.6-3-0.3-6.1,0.8-9c1.1-2.8,3.1-5.3,5.6-7C18.8,3.9,21.7,3,24.7,3c2,0,3.9,0.4,5.8,1.2
	c1.8,0.8,3.5,1.9,4.9,3.4c1.4,1.4,2.5,3.1,3.3,5C39.4,14.4,39.8,16.5,39.8,18.5L39.8,18.5z"/>
<path class="st0" d="M10.8,32.8l-7.8,8"/>
</svg>
